<svg transform="scale(2)" id="_0199_Artificial_Intelligence_2" xmlns="http://www.w3.org/2000/svg" viewBox="0 0 500 500" class="show_show__wrapper__graphic__5Waiy "><title>React</title><defs><style>.cls-1{fill:#d6b2a4;}.cls-2{fill:#fff;}.cls-3{fill:#3c4368;}.cls-4{fill:#ffde91;}.cls-5{fill:#af93a2;}.cls-6{fill:#e6e7e8;}.cls-7{fill:#bcbec0;}</style></defs><g id="back-tabs"><g><path class="cls-4" d="M136.63,252.82c43.88-35.68,98.43-58.07,154.73-63.51,16.5-1.59,34.01-1.56,48.55,6.39,5.97-41.62,10.89-83.4,14.75-125.27,.25-2.72,.45-5.68-1.03-7.98-1.15-1.8-3.12-2.88-5.04-3.83-27.04-13.52-58.04-17.53-88.25-16.21-30.21,1.32-59.93,7.74-89.48,14.13-9.24,2-26.66,2.55-31.07,12.44-4.71,10.56-2.5,28.2-3.1,39.59-1.61,30.9-2.2,61.86-1.76,92.81,.12,8.72,.33,17.44,.62,26.16,.11,3.27,3.1,23.64,1.06,25.3Z"></path><path class="cls-1" d="M147.21,131.72c-.09,3.1,.03,6.64,2.37,8.68,2.53,2.21,6.37,1.59,9.64,.84,8.27-1.89,16.53-3.78,24.8-5.68,5.78-1.32,11.94-2.85,15.97-7.21,4.36-4.72,5.2-11.61,5.82-18.01,.97-9.95,1.94-19.9,2.91-29.86,.26-2.69,.37-5.81-1.63-7.63-1.57-1.43-3.91-1.52-6.04-1.48-9.23,.17-18.44,1.4-27.4,3.62-5.75,1.43-14.83,2.87-19.51,6.95-5.06,4.42-4.45,13.32-5.04,19.37-.98,10.11-1.61,20.25-1.9,30.39Z"></path><path class="cls-1" d="M219.56,77.08c-.22,0-.42-.14-.48-.37-.07-.27,.08-.54,.35-.62,32.5-9.06,67.38-11.71,100.88-7.67,.27,.03,.47,.28,.44,.56-.03,.27-.29,.47-.56,.44-33.37-4.03-68.12-1.39-100.5,7.64-.04,.01-.09,.02-.13,.02Z"></path><path class="cls-1" d="M220.28,92.81c-.22,0-.41-.14-.48-.36-.08-.26,.07-.54,.33-.62,30.68-9.19,63.58-11.19,95.15-5.8,.27,.05,.46,.3,.41,.58-.05,.27-.3,.46-.58,.41-31.42-5.36-64.16-3.37-94.69,5.78-.05,.01-.1,.02-.14,.02Z"></path><path class="cls-1" d="M219.47,108.23c-.24,0-.45-.17-.49-.41-.05-.27,.13-.53,.4-.58,33.36-6.15,67.45-8.59,101.34-7.24,.28,.01,.49,.24,.48,.52-.01,.28-.2,.51-.52,.48-33.82-1.33-67.84,1.1-101.12,7.23-.03,0-.06,0-.09,0Z"></path><path class="cls-1" d="M221.68,125.34c-.21,0-.41-.13-.48-.35-.08-.26,.06-.54,.32-.63,28.41-9.2,57.95-13.42,87.79-12.55,.28,0,.49,.24,.49,.51s-.22,.49-.51,.49c-29.73-.88-59.16,3.33-87.45,12.5-.05,.02-.1,.02-.15,.02Z"></path><path class="cls-1" d="M289.89,156.42c1.56,3.76,4.16,7.18,7.72,9.15,5.17,2.86,11.93,2.19,16.76-1.22,10.5-7.4,11.49-29.78-2.12-34.74-16.2-5.9-28.18,12.8-22.37,26.81Z"></path></g><g><path class="cls-1" d="M310.48,113.82c17.55-.7,35.24-1.39,52.56,1.52,17.32,2.91,34.46,9.73,46.87,22.15,.05-31.9,.1-63.8,.16-95.71,0-4.71-31.47-16.1-35.9-17.8-12.96-4.98-26.39-8.71-40.06-11.12-9.1-1.6-26.1-7.67-29.05,4.08-3.36,13.38-.29,31.79,.4,45.5,.87,17.19,2.55,34.34,5.02,51.38Z"></path><path class="cls-2" d="M321.06,36.16c2.06,2.01,4.91,2.93,7.65,3.8,18.78,5.91,37.56,11.82,56.35,17.73,2.4,.75,4.89,1.52,7.39,1.21s5.01-1.99,5.44-4.47c.65-3.77-3.42-6.49-6.91-8.07-14.7-6.63-29.94-12.07-45.52-16.25-5.48-1.47-11.8-4.33-17.49-4.52-6.08-.2-12.87,4.74-6.89,10.57Z"></path><path class="cls-2" d="M390.89,77.74c-.09,0-.17-.02-.25-.07-23.01-13.54-47.94-23.1-74.11-28.41-.27-.06-.45-.32-.39-.59,.06-.27,.32-.44,.59-.39,26.27,5.34,51.31,14.94,74.41,28.53,.24,.14,.32,.45,.18,.68-.09,.16-.26,.25-.43,.25Z"></path><path class="cls-2" d="M391.09,89.25c-.08,0-.17-.02-.24-.06-22.7-12.73-48.4-20.69-74.32-23.02-.28-.02-.48-.27-.45-.54,.02-.28,.26-.48,.54-.45,26.06,2.35,51.9,10.35,74.71,23.15,.24,.14,.33,.44,.19,.68-.09,.16-.26,.26-.44,.26Z"></path><path class="cls-2" d="M391.3,105.27c-.13,0-.25-.05-.35-.14-8.15-8.02-19.31-13.83-33.15-17.26-12.32-3.05-25.2-3.89-37.66-4.69-.28-.02-.48-.26-.47-.53,.02-.28,.24-.48,.53-.47,12.5,.81,25.42,1.65,37.83,4.72,14.02,3.47,25.33,9.36,33.61,17.51,.2,.19,.2,.51,0,.71-.1,.1-.23,.15-.36,.15Z"></path></g></g><g id="blink_blink"><g><path class="cls-5" d="M366.65,485.9s-.02,0-.02,0c-.28-.01-.49-.25-.48-.52l.49-10.51c.01-.28,.24-.49,.52-.48,.28,.01,.49,.25,.48,.52l-.49,10.51c-.01,.27-.23,.48-.5,.48Z"></path><path class="cls-5" d="M361.26,480.76c-.22,0-.42-.15-.48-.37-.07-.27,.09-.54,.36-.61,3.64-.96,7.52-1.14,11.22-.51,.27,.05,.46,.3,.41,.58-.04,.27-.31,.45-.58,.41-3.57-.6-7.3-.43-10.8,.49-.04,.01-.09,.02-.13,.02Z"></path></g><path class="cls-5" d="M93.73,154.23c-1.06,0-2.12-.24-3.07-.75-2.96-1.58-4.35-5.53-3.05-8.62,1.3-3.09,5.11-4.84,8.3-3.83,.26,.08,.41,.36,.33,.63-.08,.26-.36,.41-.63,.33-2.73-.87-5.97,.63-7.08,3.26-1.11,2.63,.08,6,2.6,7.35,2.52,1.35,5.98,.48,7.56-1.91,1.58-2.39,1.02-5.91-1.21-7.7-.22-.17-.25-.49-.08-.7,.18-.22,.49-.25,.7-.08,2.62,2.1,3.27,6.23,1.42,9.03-1.26,1.9-3.54,2.99-5.8,2.99Z"></path><path class="cls-5" d="M465.42,461.11c-.66,0-1.31-.15-1.9-.46-1.83-.98-2.69-3.42-1.89-5.33,.81-1.91,3.16-3,5.14-2.37,.26,.08,.41,.36,.33,.63-.08,.26-.36,.41-.63,.33-1.48-.47-3.31,.37-3.92,1.8-.6,1.43,.07,3.33,1.44,4.06,1.37,.73,3.32,.24,4.18-1.06,.86-1.3,.54-3.29-.67-4.26-.22-.17-.25-.49-.08-.7,.17-.22,.49-.25,.7-.08,1.62,1.3,2.02,3.86,.88,5.59-.78,1.18-2.19,1.85-3.59,1.85Z"></path><g><path class="cls-5" d="M88.36,98.18s-.02,0-.02,0c-.28-.01-.49-.25-.48-.52l.84-17.86c.01-.28,.24-.49,.52-.48,.28,.01,.49,.25,.48,.52l-.84,17.86c-.01,.27-.23,.48-.5,.48Z"></path><path class="cls-5" d="M79.2,89.45c-.22,0-.42-.15-.48-.37-.07-.27,.09-.54,.36-.61,6.13-1.62,12.67-1.92,18.92-.86,.27,.05,.46,.3,.41,.58-.04,.27-.31,.45-.58,.41-6.11-1.03-12.51-.74-18.5,.84-.04,.01-.09,.02-.13,.02Z"></path></g><path class="cls-5" d="M24.35,442.66c-.66,0-1.31-.15-1.89-.46-1.82-.98-2.68-3.41-1.88-5.31,.81-1.9,3.15-2.99,5.12-2.36,.26,.08,.41,.36,.33,.63-.08,.26-.36,.41-.63,.33-1.47-.47-3.29,.37-3.9,1.8-.6,1.42,.07,3.31,1.43,4.04,1.36,.73,3.31,.24,4.16-1.05,.85-1.29,.54-3.27-.67-4.24-.22-.17-.25-.49-.08-.7,.17-.22,.49-.25,.7-.08,1.61,1.29,2.01,3.84,.88,5.57-.78,1.17-2.18,1.84-3.58,1.84Z"></path><path class="cls-5" d="M391.17,188.14c-1.06,0-2.12-.24-3.07-.75-2.96-1.58-4.35-5.53-3.05-8.62,1.3-3.09,5.11-4.84,8.3-3.83,.26,.08,.41,.36,.33,.63s-.36,.41-.63,.33c-2.73-.87-5.97,.63-7.08,3.26-1.11,2.63,.08,6,2.6,7.35,2.52,1.35,5.98,.48,7.56-1.91,1.58-2.39,1.02-5.91-1.21-7.7-.22-.17-.25-.49-.08-.7,.18-.22,.49-.25,.7-.08,2.62,2.1,3.27,6.23,1.42,9.03-1.26,1.9-3.54,2.99-5.8,2.99Z"></path><path class="cls-5" d="M348.19,445.25c-1.06,0-2.12-.24-3.07-.75-2.96-1.58-4.35-5.53-3.05-8.62,1.3-3.09,5.11-4.84,8.3-3.83,.26,.08,.41,.36,.33,.63-.08,.26-.36,.41-.63,.33-2.73-.87-5.97,.63-7.08,3.26-1.11,2.63,.08,6,2.6,7.35,2.52,1.35,5.98,.47,7.56-1.91,1.58-2.39,1.02-5.91-1.21-7.7-.22-.17-.25-.49-.08-.7,.18-.22,.49-.25,.7-.08,2.62,2.1,3.27,6.23,1.42,9.03-1.26,1.9-3.54,2.99-5.8,2.99Z"></path></g><g id="AI"><path class="cls-3" d="M249.02,277.54c5.72,4.59,9.13,11.93,8.96,19.27-.17,7.33-3.93,14.5-9.86,18.82-4.16,3.02-9.64,4.66-14.53,3.08-5.93-1.92-9.63-8.15-10.43-14.33-.71-5.48-1.33-18.79,1.07-24.1,4.42-9.76,17.87-8.28,24.79-2.72Z"></path><path class="cls-7" d="M275.16,172.86c-1.48,6.71-7.35,12.79-14.22,12.61-6.06-.16-11.23-5.13-13.21-10.87-3.02-8.76-1.07-31.15,11.59-31.78,12.47-.63,17.87,20.82,15.83,30.05Z"></path><path class="cls-7" d="M189.51,274.37c-8.52,5.78-13.49,15.45-17.21,25.04-13.38,34.48-14.87,72.24-16.21,109.2-.09,2.59-.15,5.34,1.16,7.57,2.55,4.33,8.7,4.55,13.64,3.67,20.69-3.71,38.15-17.06,54.71-29.99,6.4-4.99,13.01-10.25,16.54-17.55,3.85-7.96,3.51-17.24,2.8-26.06-1.32-16.4-3.75-32.91-9.37-48.44-3.75-10.36-9.29-27.1-22.09-28.43-8.28-.86-16.99,.24-23.99,4.99Z"></path><path class="cls-3" d="M146.48,294.53c-8.19,10.65-6.65,27.52,3.32,36.52,4.81,4.34,11.43,6.89,17.86,6.01,9.39-1.28,16.68-9.63,19.12-18.78,2.34-8.8,2.94-27-7.07-31.75-10.97-5.2-25.89-1.56-33.23,8Z"></path><path class="cls-6" d="M114.92,405.55c-.87,9.2-.35,19.48,6.04,26.16,3.98,4.16,9.76,6.26,15.5,6.7,5.74,.44,11.49-.65,17.06-2.1,22.86-5.94,43.66-17.8,64.15-29.54,2.33-1.33,4.8-2.81,5.95-5.24,1.81-3.8-.27-8.23-2.31-11.92-1.15-2.08-2.44-4.28-4.59-5.29-4.09-1.9-8.55,1.42-12,4.33-13.87,11.7-30.56,20.03-48.24,24.1-4.86,1.12-10.76,1.62-14.08-2.11-2.37-2.65-2.55-6.54-2.47-10.09,.47-22.5,6.29-44.88,16.85-64.75,2.54-4.78,7.6-16.54-1.14-18.41-5.78-1.24-11.17,4.98-13.65,9.31-8.82,15.41-16.01,32.76-21.16,49.73-2.88,9.49-4.98,19.23-5.91,29.11Z"></path><path class="cls-7" d="M220.25,374.94c2.45-.26,4.92,.68,6.85,2.2,1.94,1.51,3.39,3.56,4.59,5.71,1.95,3.49,3.28,7.32,3.92,11.27,.45,2.79,.52,5.8-.87,8.25-1.69,2.97-5.37,4.5-8.76,4.11-12.14-1.39-22.18-29.8-5.73-31.54Z"></path><path class="cls-3" d="M228.94,353.71c6.27-7.69,14.88-13.16,23.89-17.3,7.32-3.36,15.4-5.98,23.34-4.6,7.93,1.38,15.44,7.87,15.57,15.93,.1,6.31-4.11,11.85-8.63,16.26s-9.69,8.44-12.49,14.1c-3.22,6.5-2.97,14.55-7.28,20.38-5.4,7.3-16.52,8.39-24.71,4.48-7.44-3.55-16.51-12.45-18.36-20.8-2.14-9.65,2.7-21.14,8.67-28.45Z"></path><path class="cls-3" d="M207.73,318.84c-.18,6.62,4.59,13.04,10.96,14.86,2.28,.65,4.79,.75,6.99-.14,2.17-.88,3.9-2.65,5.09-4.66,2.6-4.38,2.8-10.09,.53-14.64-2.11-4.22-8.42-9.51-13.46-8.94-5.74,.65-9.97,8.41-10.11,13.52Z"></path><path class="cls-6" d="M181.31,102.67c4.95-12.8,15.01-23.86,27.91-28.54s28.47-2.32,38.44,7.1c13.52,12.77,14.06,33.72,13.67,52.31-.71,33.7-1.43,67.53-7.05,100.77-1.57,9.27-4.11,19.41-11.9,24.68-8.43,5.7-20.42,3.28-28.33-3.12-7.91-6.4-12.58-15.91-16.51-25.31-9.21-22.06-15.66-45.27-19.18-68.91-2.65-17.79-3.55-42.17,2.95-58.97Z"></path><path class="cls-7" d="M165.12,171.6c-.63,6.84,1.78,13.8,6.09,19.14,3.77,4.67,9.09,8.22,15.01,9.22,11.19,1.89,22.85-6.47,25.52-17.5,7.93-32.82-43.6-43.38-46.62-10.86Z"></path><path class="cls-5" d="M227.23,189.22c.42,1.16,1.18,2.45,2.41,2.49,1.57,.04,2.31-1.9,2.59-3.45,.51-2.81,1.87-9.8-2.83-9.23-4.87,.59-3.19,7.36-2.17,10.19Z"></path><path class="cls-5" d="M243.33,174.68c-1.09,2.76-1.83,5.65-2.19,8.6-.12,.98-.2,1.99,.08,2.93s.98,1.82,1.94,2.04c1.72,.39,3.15-1.36,3.81-3,.85-2.1,1.22-4.39,1.09-6.65-.07-1.27-.35-2.63-1.3-3.49-.95-.85-2.73-.82-3.28,.33"></path><path class="cls-7" d="M205.79,162.84c-.23,0-.44-.16-.49-.4-.05-.27,.12-.53,.39-.59,6-1.22,8.83-7.85,9.77-10.65,.62-1.86,1.1-3.81,1.56-5.7,.76-3.13,1.55-6.38,3.04-9.32,2.89-5.72,8.39-9.84,14.37-10.76,6.36-.98,12.94,1.78,16.37,6.87,2.02,2.99,2.89,6.54,3.73,9.97,.25,1.03,.5,2.05,.79,3.07,1.54,5.52,4,9.07,7.32,10.54,.25,.11,.37,.41,.25,.66s-.41,.37-.66,.25c-3.61-1.61-6.26-5.37-7.88-11.19-.29-1.02-.54-2.06-.79-3.1-.82-3.35-1.67-6.81-3.59-9.65-3.22-4.77-9.4-7.36-15.39-6.44-5.66,.87-10.88,4.79-13.63,10.22-1.44,2.84-2.21,6.03-2.96,9.1-.46,1.91-.94,3.89-1.58,5.78-.99,2.96-4,9.99-10.51,11.31-.03,0-.07,.01-.1,.01Z"></path><path class="cls-2" d="M223.55,330.3s-.01,0-.02,0c-.28-.01-.49-.25-.48-.52,.32-7.2-.91-14.54-3.56-21.24-.1-.26,.02-.55,.28-.65,.26-.1,.55,.02,.65,.28,2.7,6.83,3.95,14.32,3.63,21.65-.01,.27-.23,.48-.5,.48Z"></path><path class="cls-2" d="M211.31,320.82c-.19,0-.37-.11-.45-.29-.12-.25-.01-.55,.24-.67,5.59-2.65,11.82-3.82,17.99-3.37,.28,.02,.48,.26,.46,.54-.02,.28-.29,.48-.54,.46-6.01-.44-12.05,.69-17.49,3.27-.07,.03-.14,.05-.21,.05Z"></path><path class="cls-2" d="M229.77,372.15c-.08,0-.17-.02-.25-.07-.24-.14-.32-.44-.19-.68,5.83-10.21,15.06-18.26,25.96-22.67s23.13-5.01,34.42-1.7c.26,.08,.42,.36,.34,.62-.08,.26-.35,.42-.62,.34-11.07-3.24-23.07-2.65-33.77,1.67-10.7,4.32-19.75,12.21-25.47,22.23-.09,.16-.26,.25-.43,.25Z"></path><path class="cls-2" d="M194.26,197.17c-.17,0-.33-.08-.42-.23-.15-.23-.08-.54,.16-.69,2.34-1.48,4-4.22,4.55-7.52,.52-3.15,.03-6.44-.52-9.23-.89-4.53-2.58-11.09-6.95-15.78-4.27-4.59-10.65-6.33-15.5-4.23-.25,.11-.55,0-.66-.26-.11-.25,0-.55,.26-.66,5.24-2.26,12.08-.42,16.63,4.47,4.54,4.88,6.28,11.62,7.2,16.27,.57,2.89,1.08,6.28,.53,9.59-.6,3.59-2.42,6.58-5,8.21-.08,.05-.17,.08-.27,.08Z"></path></g><g id="front-tabs"><path class="cls-4" d="M54.21,226.66c11.3,14.7,39.81,25.57,73.48,28.02-9.41,60.08-10.61,120.04-3.6,179.39-38.03-2.04-71.06-13.56-85.14-29.69-9.26-10.61-10.56-22.65-11.54-34.46-4.34-51.85-4.84-104.04,4.68-156.42,1.13-6.22,2.46-12.55,7.56-18.52,3.17-3.71,14.12-13.63,24.52-11.52-2.38,6.98-12.7,13.98-14.68,21.57-1.94,7.42-.46,14.88,4.72,21.62Z"></path><path class="cls-1" d="M187.18,351.65c.34,38.09,.69,76.17,1.03,114.26,.05,5.8-.06,12.03-4.5,16.76-4.87,5.21-13.77,7.28-22.15,8.08-26.43,2.52-52.73-4.24-77.66-11.34-8.63-2.46-17.77-5.28-22.97-11.03-4.92-5.45-5.33-12.45-5.53-19.04-.97-32.73-.84-65.49,.4-98.22,.23-5.94-3.1-16.18,6.04-14.45,6.4,1.21,14.85,8.12,21.13,10.59,15.03,5.92,31.66,9.5,48.55,10.56,18.85,1.19,38.11-.77,55.66-6.17Z"></path><path class="cls-4" d="M352.67,247.07c32.7-10.35,60.88-25.94,84.69-43.65,3.44,47.72,6.88,95.43,10.32,143.15,.6,8.27,1.09,16.89-4.21,24.44-7,9.97-22.61,16.09-37.34,21.59-23.6,8.83-47.37,17.7-73.07,23.64-25.71,5.94-53.74,8.83-80.52,5.34-.64-31.91-1.28-63.82-1.92-95.73-.32-15.86-.64-31.73-.96-47.59-.08-4.11-3.43-14.55,2.15-17.75,5.21-2.99,21.8-.58,28.67-.84,25.07-.94,49.71-5.48,72.18-12.6Z"></path><path class="cls-1" d="M459.56,274.73c-5.69,7.11-16.23,12.25-27.67,15.49-11.43,3.24-23.84,4.78-36.12,6.29,3,48.76,.37,97.65-7.86,146.17,17.1,.07,34.52-.89,50.34-5.02,15.82-4.13,29.99-11.8,35.97-22.02,4.59-7.84,4.1-16.47,3.55-24.84-2.47-37.65-4.94-75.31-7.41-112.96-.5-7.66-.64-18.04-8.93-24.16-1.92,2.15,1.99,6.82,2.15,9.57,.23,3.95-1.2,7.96-4.02,11.48Z"></path></g></svg>