<svg transform="scale(4)" id="_0227_Coding_3" xmlns="http://www.w3.org/2000/svg" viewBox="0 0 500 500" class="show_show__wrapper__graphic__5Waiy "><title>React</title><defs><style>.cls-1{fill:#d6b2a4;}.cls-2{fill:#fff;}.cls-3{fill:#3c4368;}.cls-4{fill:#ffde91;}.cls-5{fill:#af93a2;}.cls-6{fill:#292e54;}.cls-7{fill:#e6e7e8;}.cls-8{fill:#bcbec0;}</style></defs><g id="coding-tab"><g id="presentation"><path class="cls-7" d="M26.29,79.45c.29,38.66,.57,225.77,.86,264.34,.03,4.11,.38,9.03,2.78,10.8,1.07,.79,2.33,.73,3.53,.64,5.98-.41,11.96-.82,17.94-1.23,19.18-1.31,166.67,.37,185.78-.94,4.01-.28,8.7-1.14,10.79-6.46,1.18-3,1.18-6.67,1.16-10.14-.29-35.24,.35-224.51,.06-259.82-.03-3.86-.13-8.02-1.65-11.06-2.28-4.57-6.66-4.67-10.43-4.46-15.97,.9-161.24,2.74-177.24,2.07-7.93-.33-15.88-.47-23.81-1.12-7.04-.58-9.82,7.48-9.75,17.39Z"></path></g><path class="cls-8" d="M50.05,182.37l-.24-1.99c9.33-1.13,18.82-1.71,28.21-1.73v2c-9.31,.02-18.73,.6-27.97,1.72Z"></path><rect class="cls-5" x="81.95" y="177.84" width="27.05" height="2" transform="translate(-7.3 4.09) rotate(-2.36)"></rect><rect class="cls-8" x="49.92" y="186.13" width="26.16" height="2" transform="translate(-8.72 3.17) rotate(-2.69)"></rect><rect class="cls-5" x="81.96" y="185.96" width="26.71" height="2" transform="translate(-4.81 2.53) rotate(-1.48)"></rect><rect class="cls-5" x="81.97" y="193.79" width="27.68" height="2" transform="translate(-1.14 .56) rotate(-.34)"></rect><rect class="cls-5" x="81.96" y="201.02" width="90.05" height="2" transform="translate(-5.82 3.77) rotate(-1.66)"></rect><rect class="cls-1" x="112.94" y="209.14" width="54.69" height="2" transform="translate(-6.45 4.45) rotate(-1.78)"></rect><rect class="cls-1" x="112.96" y="218.68" width="51.37" height="2" transform="translate(-5.01 3.24) rotate(-1.32)"></rect><rect class="cls-1" x="112.86" y="124.84" width="65.54" height="2" transform="translate(-6.29 7.67) rotate(-2.95)"></rect><polygon class="cls-1" points="112.94 136.77 112.88 134.77 155.99 133.46 156.06 135.46 154.92 135.5 154.92 135.49 112.94 136.77"></polygon><path class="cls-1" d="M115.95,144.78c-1.01,0-2.02,0-3.03,0v-2c11.67,.06,23.52-.24,35.23-.9l.11,2c-10.74,.61-21.59,.91-32.31,.91Z"></path><path class="cls-8" d="M77.26,151.78c-9.03-1.21-18.22-1.62-27.3-1.24l-.08-2c9.2-.39,18.51,.03,27.65,1.25l-.26,1.98Z"></path><rect class="cls-5" x="81.94" y="150.36" width="25.08" height="2" transform="translate(-4.25 2.74) rotate(-1.62)"></rect><rect class="cls-8" x="49.91" y="156.53" width="27.15" height="2" transform="translate(-2.68 1.11) rotate(-.98)"></rect><polygon class="cls-5" points="81.98 159.33 81.92 157.33 109.68 156.45 109.77 158.44 105.73 158.67 105.73 158.57 81.98 159.33"></polygon><path class="cls-5" d="M102.96,166.45c-7.05,0-14.07-.19-21.07-.57l.11-2c22.32,1.22,45.03,.48,67.49-2.21l.24,1.99c-15.54,1.86-31.21,2.79-46.78,2.79Z"></path><path class="cls-1" d="M129.58,173.89c-5.6,0-11.19-.26-16.74-.79l.19-1.99c12.48,1.18,25.17,1.02,37.72-.49l.24,1.99c-7.11,.85-14.27,1.28-21.41,1.28Z"></path><path class="cls-8" d="M49.93,232.93l-.24-1.99c9.33-1.13,18.82-1.71,28.21-1.73v2c-9.31,.02-18.72,.6-27.97,1.72Z"></path><rect class="cls-5" x="81.83" y="228.4" width="27.05" height="2" transform="translate(-9.38 4.13) rotate(-2.36)"></rect><rect class="cls-8" x="49.8" y="236.69" width="26.16" height="2" transform="translate(-11.13 3.23) rotate(-2.7)"></rect><rect class="cls-5" x="81.84" y="236.52" width="26.71" height="2" transform="translate(-6.12 2.54) rotate(-1.48)"></rect><rect class="cls-5" x="81.85" y="244.35" width="27.68" height="2" transform="translate(-1.44 .56) rotate(-.34)"></rect><rect class="cls-5" x="81.84" y="251.59" width="90.05" height="2" transform="translate(-7.29 3.79) rotate(-1.66)"></rect><rect class="cls-1" x="112.83" y="259.7" width="54.69" height="2" transform="translate(-8.02 4.47) rotate(-1.78)"></rect><rect class="cls-1" x="112.84" y="269.24" width="51.37" height="2" transform="translate(-6.17 3.25) rotate(-1.32)"></rect><rect class="cls-1" x="112.83" y="278.58" width="107.85" height="2" transform="translate(-7.72 4.75) rotate(-1.6)"></rect><path class="cls-8" d="M174.98,287.79l-.15-1.99c16.83-1.25,33.95-1.63,50.89-1.13l-.06,2c-16.87-.49-33.92-.11-50.68,1.13Z"></path><rect class="cls-8" x="174.91" y="295.24" width="48.08" height="2" transform="translate(-3.31 2.25) rotate(-.64)"></rect><rect class="cls-8" x="174.92" y="306.66" width="39.24" height="2" transform="translate(-1.5 .95) rotate(-.28)"></rect><rect class="cls-1" x="112.83" y="314.56" width="65.54" height="2" transform="translate(-16.06 7.92) rotate(-2.95)"></rect><polygon class="cls-1" points="112.91 326.5 112.85 324.5 155.96 323.18 156.03 325.18 154.89 325.22 154.89 325.22 112.91 326.5"></polygon><path class="cls-1" d="M115.91,334.51c-1.01,0-2.02,0-3.03,0v-2c11.67,.06,23.52-.24,35.23-.9l.11,2c-10.74,.61-21.59,.91-32.31,.91Z"></path><path class="cls-8" d="M77.22,96.6c-9.03-1.21-18.22-1.62-27.3-1.24l-.08-2c9.2-.39,18.51,.03,27.65,1.25l-.26,1.98Z"></path><rect class="cls-5" x="81.9" y="95.17" width="25.08" height="2" transform="translate(-2.69 2.71) rotate(-1.62)"></rect><rect class="cls-8" x="49.88" y="101.34" width="27.15" height="2" transform="translate(-1.74 1.1) rotate(-.98)"></rect><polygon class="cls-5" points="81.95 104.15 81.88 102.15 109.65 101.26 109.74 103.26 105.7 103.49 105.69 103.39 81.95 104.15"></polygon><path class="cls-5" d="M102.92,111.27c-7.05,0-14.07-.19-21.06-.57l.11-2c22.32,1.22,45.03,.48,67.49-2.21l.24,1.99c-15.54,1.86-31.21,2.79-46.78,2.79Z"></path><path class="cls-1" d="M129.54,118.7c-5.6,0-11.19-.26-16.74-.79l.19-1.99c12.48,1.18,25.17,1.02,37.72-.49l.24,1.99c-7.11,.85-14.27,1.28-21.41,1.28Z"></path></g><g id="tab-2"><path class="cls-1" d="M478.52,223.91c3.93,.53,7.79,2.51,9.68,6.12,1.56,2.98,1.61,6.65,1.63,10.15,.09,20.34,.19,40.45,.28,60.35,.02,4.82-.14,10.15-3.3,13.91-3,3.58-7.79,4.61-12.17,5.2-34.68,4.71-69.66-2.76-105.32,.88-8.18,.84-17.03,2.14-24.05-1.92-5.46-3.15-8.86-9.15-10.4-15.46-1.55-6.33-1.44-13.04-1.32-19.67,.25-14.29,.51-28.7,.77-43.21,.07-4.09,.32-8.64,3.14-11.59,2.55-2.67,6.42-3.19,9.97-3.53,23.12-2.21,46.11-3.22,68.86-3.06,11.3,.08,22.53,.45,33.68,1.11,5.36,.32,10.8,1.2,16.15,1.23,4.09,.03,8.28-1.08,12.4-.52Z"></path><g id="gears"><path class="cls-6" d="M380.7,244.61c0-.38,.03-.76,.06-1.14-.54-.35-1.07-.7-1.61-1.05,.1-1.77,.59-3.54,1.41-5.11,.23,0,1.55-.08,2.05,.03,0-.01,.01-.03,.02-.04,.64-1.22,1.44-2.37,2.38-3.34-.12-.58-.25-1.16-.37-1.73,1.21-1.25,2.68-2.2,4.25-2.73,.17,.2,1.26,1.27,1.44,1.67,1.6-.22,3.27-.07,4.86,.29,.45-.57,.91-1.15,1.36-1.72,1.59,.31,3.09,1.04,4.34,2.11-.06,.28-.27,1.96-.48,2.32,0,0,0,0,.01,.01,.82,.83,1.51,1.8,2.06,2.87,.55-.06,1.11-.13,1.66-.19,.87,1.44,1.42,3.13,1.57,4.88-.22,.16-1.51,1.3-1.84,1.35-.03,1.28-.24,2.56-.63,3.79,.39,.44,.98,1.38,1.11,1.54-.67,1.63-1.7,3.1-2.97,4.26-.4-.16-.8-.31-1.19-.47-.44,.48-.91,.92-1.41,1.31-1.09,.86-2.3,1.51-3.56,1.94-.08,.64-.26,1.52-.29,1.71-1.53,.63-3.19,.87-4.79,.69-.23-.65-.46-1.29-.69-1.94-.6-.11-1.19-.26-1.77-.47-1.25-.45-2.42-1.14-3.43-2.04-.55,.28-1.44,.61-1.62,.69-1.21-1.12-2.16-2.57-2.74-4.19,.41-.56,.83-1.12,1.24-1.69-.31-1.16-.46-2.39-.44-3.62Zm14.52-13.15c.09,.02,.17,.04,.26,.06-.11-.04-.2-.06-.26-.06Zm-6.24,17.66c2.06,1.08,4.79,.56,6.51-1.23,1.72-1.8,2.3-4.75,1.39-7.05-.88-2.24-3.66-4.18-6.01-3.73-2.35,.44-4.56,3.32-4.88,5.79-.33,2.53,.92,5.14,2.99,6.23Z"></path><path class="cls-6" d="M348.35,283.91c0-.68,.04-1.36,.1-2.03-.98-.62-1.96-1.24-2.94-1.86,.15-3.18,1.01-6.35,2.49-9.17,.43,.01,2.83-.16,3.73,.02,.01-.02,.03-.05,.04-.07,1.15-2.19,2.58-4.27,4.28-6.02-.23-1.04-.47-2.07-.7-3.11,2.18-2.26,4.84-3.98,7.7-4.96,.31,.35,2.31,2.26,2.63,2.98,2.91-.42,5.95-.15,8.83,.47,.82-1.04,1.64-2.07,2.45-3.11,2.88,.54,5.61,1.84,7.88,3.75-.1,.49-.48,3.52-.85,4.16,0,0,.02,.02,.02,.02,1.49,1.48,2.75,3.21,3.75,5.11,1-.12,2.01-.24,3.01-.36,1.59,2.57,2.58,5.57,2.87,8.69-.4,.29-2.71,2.34-3.32,2.44-.04,2.28-.43,4.57-1.11,6.76,.71,.79,1.78,2.43,2.01,2.73-1.21,2.91-3.05,5.54-5.32,7.61-.72-.27-1.44-.55-2.16-.82-.79,.85-1.64,1.64-2.54,2.36-1.95,1.54-4.13,2.72-6.42,3.51-.14,1.14-.46,2.7-.5,3.05-2.76,1.15-5.75,1.6-8.64,1.3-.42-1.14-.85-2.29-1.27-3.43-1.09-.18-2.16-.45-3.2-.81-2.26-.79-4.4-1.99-6.24-3.57-.99,.51-2.6,1.11-2.92,1.26-2.21-1.97-3.96-4.54-5.05-7.42,.74-1.01,1.49-2.02,2.23-3.03-.59-2.07-.88-4.26-.86-6.46Zm26.22-23.74c.16,.03,.31,.07,.47,.1-.2-.07-.37-.11-.47-.1Zm-11.13,31.67c3.75,1.9,8.68,.93,11.77-2.29,3.09-3.23,4.12-8.51,2.46-12.59-1.62-3.99-6.67-7.43-10.94-6.61-4.27,.82-8.23,6-8.79,10.42-.57,4.53,1.74,9.18,5.5,11.08Z"></path></g><path class="cls-7" d="M473.93,236.82c3.79,.69,8.28,2.38,8.58,6.47,.2,2.68-1.71,5.29-4.01,6.61s-4.93,1.62-7.48,1.83c-14.91,1.27-29.88,.72-44.83-.43-2.81-.22-5.7-.47-8.18-1.79-2.48-1.32-4.49-3.97-4.31-6.97,.5-8.17,20.26-7.26,25.3-7.61,11.8-.82,23.55-.19,34.93,1.89Z"></path><path class="cls-2" d="M407.24,267.1c-.26,0-.48-.2-.5-.46-.02-.27,.18-.52,.46-.54,22.98-1.77,46.09-2.31,68.68-1.6,.28,0,.49,.24,.48,.52,0,.28-.23,.47-.52,.48-22.55-.7-45.62-.16-68.57,1.6-.01,0-.03,0-.04,0Z"></path><path class="cls-2" d="M411.44,277.18c-.27,0-.5-.22-.5-.5,0-.28,.22-.5,.5-.5l64.96-.37c.28,.03,.5,.22,.5,.5,0,.28-.22,.5-.5,.5l-64.96,.37h0Z"></path><path class="cls-2" d="M409.28,287.41c-.27,0-.5-.22-.5-.5,0-.28,.22-.5,.5-.5l66.25-.5h0c.27,0,.5,.22,.5,.5,0,.28-.22,.5-.5,.5l-66.25,.5h0Z"></path><path class="cls-2" d="M407.6,298.03c-.27,0-.5-.22-.5-.49,0-.28,.22-.5,.49-.51l69.42-.8c.26,.03,.5,.22,.51,.49,0,.28-.22,.5-.49,.51l-69.42,.8h0Z"></path><path class="cls-2" d="M474.33,306.1h-.01l-67.31-1.61c-.28,0-.49-.24-.49-.51,0-.28,.24-.48,.51-.49l67.31,1.61c.28,0,.49,.24,.49,.51,0,.27-.23,.49-.5,.49Z"></path></g><g id="lines"><path class="cls-3" d="M428.49,413.63c-132.28,.12-264.55,.25-396.83,1.06-6.75,.04-16.06,3.11-14.77,10.11,1,5.45,7.72,6.76,12.97,6.84,72.6,1.22,145.2,1.65,217.81,1.3,36.81-.17,73.62-.55,110.43-1.12,18.15-.28,36.3-.62,54.44-1,14.65-.31,30,.95,44.23-3.31,3.07-.92,23.56-7.16,21.34-12.71-2.08-5.21-43.74-1.18-49.63-1.17Z"></path></g><g id="character-back"><path class="cls-4" d="M347.53,357.93c3.66-9.25,4.88-19.24,6.95-28.97,2.07-9.73,5.22-19.61,11.93-26.96,1.3-1.43,3.07-2.85,4.96-2.42,2.38,.54,3.15,3.84,2.02,6-1.13,2.16-3.43,3.4-5.6,4.52,13.25-2.25,26.5-4.51,39.75-6.76,2.65-.45,5.41-.9,7.99-.14s4.9,3.12,4.68,5.8c-.43,5.25-7.99,5.32-12.78,7.52-8.41,3.87-8.6,15.87-14.45,23.04-4.98,6.09-13.48,7.99-19.56,12.98-12.58,10.32-12.35,31.37-25.6,40.8-9.56,6.81-23.27,4.83-33.1-1.58-6.25-4.08-15.87-12.05-17.83-19.38,8.12,.75,14.88,7.54,23.52,7.77,13.15,.35,22.69-10.99,27.14-22.23Z"></path><path class="cls-4" d="M160.36,304.04c-5.75-19.21-4.64-40.4,3.09-58.9,1.52-3.63,3.31-7.28,3.41-11.21s-2.07-8.27-5.91-9.14c-3.83-.87-8.07,3.79-5.89,7.06,1.1-13.29-.93-26.83-5.88-39.21-2.19-5.47-6.9-11.66-12.55-9.98-4.01,1.19-5.87,5.93-5.9,10.11-.04,4.19,1.16,8.35,.73,12.52-1.31,12.66-16.42,19.83-19.48,32.19-2.97,11.98,6.23,23.08,12.54,33.69,6.94,11.67,10.77,24.86,15.1,37.73s9.36,25.83,18.19,36.14c6.56,7.65,15.62,13.81,25.64,15.66,6.63,1.22,22.82,.23,14.27-8.51-2.88-2.94-7.89-4.61-11.15-7.36-4.26-3.59-8.08-7.84-11.48-12.23-6.59-8.51-11.65-18.22-14.74-28.54Z"></path><path class="cls-3" d="M284.56,343.19c3.56,.68,6.05,3.82,8.19,6.75,6.54,8.9,13.08,17.8,19.62,26.7,2.79,3.8,5.69,7.9,5.88,12.61,.28,7.03-6.23,13.16-13.24,13.82-7,.66-13.88-3.25-18.24-8.76-4.36-5.52-6.55-12.44-7.9-19.35-1.15-5.86-9.69-34.7,5.68-31.76Z"></path><path class="cls-7" d="M257.68,345.94c9.62-1.92,20.06,.85,27.45,7.3,11.15,9.72,14.24,25.63,15.51,40.37,.36,4.18,.61,8.52-.89,12.43-2.32,6.06-8.44,9.9-14.68,11.7-6.23,1.79-12.81,1.96-19.2,3.09-7.09,1.25-15.23,3.47-20.87-1.01-3.46-2.75-4.86-7.31-5.84-11.62-3.12-13.79-3.38-28-2.93-42.05,.35-10.88,11.35-18.19,21.43-20.2Z"></path><path class="cls-3" d="M255.77,358.05c-3.71-4.82-9.99-6.92-16.02-7.65-6.04-.73-12.19-.34-18.17-1.42-6.73-1.21-13.03-4.23-19.75-5.5-6.72-1.27-14.55-.34-18.92,4.93-3.06,3.69-3.82,8.89-3.01,13.61s3,9.09,5.34,13.28c3.12,5.62,6.61,11.15,11.4,15.44,4.79,4.29,11.08,7.23,17.49,6.83,12.52-.79,20.55-12.47,30.81-18.13,7.98-4.4,19.64-9.97,10.84-21.39Z"></path><g><path class="cls-4" d="M210.99,301.14c.28,2.36,.65,4.79,2.06,6.84s4.12,3.66,6.91,3.34c2.44-.28,4.33-1.88,5.94-3.44,12.44-12.02,20.48-27.23,22.78-43.05,.83-5.73,.66-12.19-4-16.43-3.9-3.55-10.3-4.66-15.88-3.52-12.2,2.49-15.35,9.58-16.9,18.85-2.07,12.38-2.38,24.97-.91,37.41Z"></path><path class="cls-6" d="M289.03,214.87c-3.73-3.89-9.97-5.28-15.83-6.11-11.34-1.62-22.92-2.02-34.37-1.18-11.38,.83-23.74,3.45-30.33,11.3-5.22,6.22-5.64,14.39-5.08,22,.49,6.55,1.97,13.72,7.96,17.93,4.9,3.45,11.95,4.1,18.17,2.88,6.22-1.22,11.8-4.08,17.09-7.09,11.25-6.38,21.53-13.66,31.44-21.44,6.01-4.73,19.46-9.4,10.95-18.28Z"></path><path class="cls-1" d="M278.32,216.27c-7.73-1.17-15.67,.57-22.98,2.98-8.61,2.83-16.94,6.71-23.14,12.48-6.21,5.77-10.08,13.64-8.84,21.35,.22,1.38,.94,3.03,2.58,3.21,1.5,.17,2.68-1,3.58-2.02,9.67-11.01,23.83-19.06,39.4-22.93,4.94-1.23,19.71-.69,22.9-3.71,5.41-5.13-8.77-10.65-13.49-11.36Z"></path><path class="cls-6" d="M244.78,229.81c-12.39,8.2-20.05,20.88-22.22,34.02-1.23,7.43-.81,15-2.08,22.42-1.27,7.42-4.55,15.03-11.53,19.7-4.48,3-10.28,4.66-13.88,8.4-5.81,6.05-3.37,15.65,3.25,21.09,6.61,5.44,16.15,7.5,25.35,8.34,31.06,2.82,62.27-6.06,89.17-19.43,4.87-2.42,9.72-5.05,13.27-8.76,3.55-3.7,5.63-8.69,4.21-13.29-1.98-6.43-9.77-10.15-14.56-15.44-5.46-6.03-6.84-13.98-7.04-21.56-.2-7.58,.59-15.26-1.29-22.67-6.56-25.9-41.09-27.08-62.65-12.82Z"></path></g><g><path class="cls-1" d="M236.22,452.18c-4.66-1.79-9.73-3.61-14.52-2.23-4.79,1.38-8.38,7.56-5.35,11.53,1.63,2.13,4.46,2.86,7.09,3.39,31.44,6.38,64.11,4.12,95.59-2.04,2.54-.5,5.14-1.04,7.33-2.42,2.19-1.38,3.92-3.79,3.77-6.37-.19-3.15-3.12-5.59-6.21-6.27s-6.29,0-9.37,.67c6.18-24.2,5.45-49.55,4.68-74.51-.07-2.22-.22-4.66-1.73-6.29-1.38-1.49-3.52-1.91-5.52-2.24-19.92-3.28-40.14-4.74-60.33-4.37-7.46,.14-19,.21-24.78,5.86-5.25,5.13-2.31,16.48-1.81,23.04,1.61,21.06,5.35,41.95,11.17,62.25Z"></path><path class="cls-2" d="M236.9,460.06s-.05,0-.07,0c-6.19-.93-12.18-2.8-17.79-5.56-.25-.12-.35-.42-.23-.67,.12-.25,.42-.35,.67-.23,5.37,2.64,11.08,4.45,16.98,5.39,.14-1.75-.16-3.51-.88-5.11-.11-.25,0-.55,.25-.66,.25-.11,.55,0,.66,.25,.86,1.93,1.17,4.06,.9,6.16-.02,.13-.09,.25-.19,.34-.09,.07-.19,.1-.3,.1Z"></path><path class="cls-2" d="M314.01,457.1c-.76,0-1.31-.25-1.65-.75-.35-.51-.34-1.13-.28-1.66,.2-1.84,.85-3.63,1.88-5.17,.15-.23,.46-.29,.69-.14,.23,.15,.29,.46,.14,.69-.94,1.41-1.53,3.04-1.71,4.73-.04,.35-.05,.75,.11,.99,.31,.45,1.18,.34,1.85,.16,3.86-1.01,7.72-2.23,11.46-3.62,.26-.1,.55,.04,.64,.29,.1,.26-.04,.55-.3,.64-3.78,1.4-7.66,2.63-11.56,3.65-.48,.12-.9,.19-1.28,.19Z"></path></g><path class="cls-2" d="M132.55,256.09c-6.08-11.49-8.92-24.42-8.2-37.4l1,.05c-.7,12.8,2.1,25.55,8.09,36.87l-.88,.47Z"></path><path class="cls-2" d="M369.56,332.16v-1c10.35-.04,20.57-1.75,30.36-5.1l.32,.95c-9.9,3.38-20.22,5.12-30.69,5.15Z"></path></g><g id="cactus"><path class="cls-4" d="M47.37,359.89c2.91-1.4,6.18-2.06,9.41-1.88-2.46-2.31-3.74-5.8-3.37-9.15,.08-.7,.32-1.5,.98-1.74,.6-.22,1.25,.15,1.78,.52,1.73,1.19,3.4,2.46,5.01,3.81,.23-2.9,1.11-5.75,2.53-8.29,.52-.92,1.21-1.88,2.25-2.09,1.86-.39,3.18,1.72,3.86,3.49,2.25,5.85,5.09,18.42-3.76,20.74-2.47,.65-5.5-.51-7.93-.92-2.01-.33-3.95-.54-5.86-1.32-.55-.23-4.91-3.15-4.9-3.16Z"></path><path class="cls-6" d="M68.78,354.33c2.82-4.18,6.32-8.01,10.72-10.48,4.4-2.47,9.79-3.45,14.58-1.88,4.4,1.43,7.94,4.86,10.3,8.83,2.36,3.97,3.66,8.48,4.67,12.99,1.56,6.91,2.51,13.95,2.86,21.03,.11,2.2,.07,4.63-1.41,6.26-1.65,1.81-4.42,1.9-6.87,1.86-11.59-.19-24.25,1.05-35.69-.95-10.34-1.81-8.71-11.96-6.8-20.1,1.28-5.45,3.54-13.46,7.63-17.55Z"></path><path class="cls-6" d="M100.74,343.29c1.77-2.57,5.21-4.29,8.08-3.07,2.84,1.2,3.98,4.56,4.67,7.56,.84,3.68,1.48,7.55,.56,11.21-.91,3.67-3.74,7.09-7.48,7.62-3.24,.46-6.56-1.42-8.23-4.23-2.93-4.92-.7-14.59,2.39-19.09Z"></path><path class="cls-2" d="M69.73,391.6c-.26,0-.48-.2-.5-.46-1.27-17.39,5.08-35.38,16.99-48.12,.19-.2,.51-.21,.71-.02,.2,.19,.21,.5,.02,.71-11.72,12.54-17.97,30.24-16.72,47.36,.02,.28-.19,.52-.46,.54-.01,0-.02,0-.04,0Z"></path><path class="cls-2" d="M99.82,386.65c-.27,0-.49-.21-.5-.48-.58-14.02-2.9-27.94-6.91-41.39-.08-.26,.07-.54,.34-.62,.26-.08,.54,.07,.62,.34,4.03,13.53,6.37,27.53,6.95,41.63,.01,.28-.2,.51-.48,.52,0,0-.01,0-.02,0Z"></path><path class="cls-2" d="M106.05,364.44c-.13,0-.26-.05-.36-.15-.19-.2-.19-.52,.01-.71,2.71-2.61,4.56-6.09,5.19-9.8,.64-3.71,.06-7.61-1.63-10.97-.12-.25-.02-.55,.22-.67,.25-.12,.55-.02,.67,.22,1.78,3.55,2.4,7.67,1.73,11.59-.67,3.92-2.62,7.6-5.48,10.35-.1,.09-.22,.14-.35,.14Z"></path><path class="cls-1" d="M51.95,403.14c2,5.26,5.84,10.2,11.41,12.48,3.91,1.61,8.33,1.8,12.63,1.86,11.38,.18,22.78-.34,34.09-1.54,2.62-.28,5.41-.67,7.34-2.3,2.05-1.73,2.63-4.43,3.08-6.94,.79-4.37,1.52-8.75,2.19-13.14,.37-2.39,.56-5.19-1.38-6.83-1.48-1.25-3.7-1.36-5.72-1.4-15.52-.27-31.05-.22-46.57,.17-4.36,.11-15.22-1.43-18.49,1.85-3.2,3.22,.1,12.27,1.41,15.78Z"></path></g><g id="html"><path class="cls-4" d="M100.84,73c.19,3.29,.72,6.91,3.92,9.1,2.91,1.99,7.17,2.2,11.08,2.31,14.36,.39,28.73,.78,43.09,1.18,3.8,.1,7.95,.12,10.94-1.68,3.58-2.15,4.15-6.05,4.38-9.51,.58-8.76,.78-17.53,.61-26.3-.06-3.17-.33-6.65-3.16-8.97-3.42-2.79-9.13-2.78-14.14-2.57-8.67,.36-17.35,.73-26.02,1.09-4.34,.18-8.67,.36-13.01,.55-3.26,.14-10.53-.61-13.34,.58-4.61,1.95-3.68,10.77-4.02,14.54-.6,6.55-.71,13.13-.32,19.68Z"></path><path class="cls-3" d="M108.57,47.46c.6-1.21,2.16-1.68,3.49-1.42,1.33,.26,2.46,1.07,3.55,1.87,3.87,2.87,7.64,5.88,11.31,9.01,1.39,1.19,2.89,2.66,2.84,4.49-.04,1.51-1.12,2.75-2.14,3.86-2.86,3.1-5.73,6.21-8.59,9.31-1.21,1.31-2.49,2.67-4.18,3.21-1.69,.54-3.9-.08-4.48-1.76-.62-1.81,.84-3.62,2.18-4.98,3.56-3.6,9.91-7.63,6.04-13-1.91-2.65-12.26-6.08-10-10.59Z"></path><path class="cls-3" d="M166.84,47.46c-.6-1.21-2.16-1.68-3.49-1.42-1.33,.26-2.46,1.07-3.55,1.87-3.87,2.87-7.64,5.88-11.31,9.01-1.39,1.19-2.89,2.66-2.84,4.49,.04,1.51,1.12,2.75,2.14,3.86,2.86,3.1,5.73,6.21,8.59,9.31,1.21,1.31,2.49,2.67,4.18,3.21,1.69,.54,3.9-.08,4.48-1.76,.62-1.81-.84-3.62-2.18-4.98-3.56-3.6-9.91-7.63-6.04-13,1.91-2.65,12.26-6.08,10-10.59Z"></path><path class="cls-3" d="M134.08,71.71c.15,1.4,.34,2.87,1.15,4.03,.81,1.16,2.45,1.86,3.68,1.18,3.11-1.73,3.22-31.14-.55-32.43-8.03-2.75-4.6,24.23-4.28,27.23Z"></path></g><g id="jigsaw"><g id="jigsaw-2"><path class="cls-1" d="M319.81,81.37c7.41-.35,14.82-.7,22.23-1.05,.76,.93-.21,2.22-.83,3.25-1.82,3.02,.12,7.57,3.55,8.33,3.42,.75,7.08-2.58,6.67-6.08-.15-1.31-.72-2.78,.06-3.84,.64-.86,1.87-.96,2.94-.97,3.27-.05,6.54-.1,9.81-.16,1.01-.02,2.07-.02,2.94,.48,1.71,.98,1.92,3.34,1.92,5.32,.01,4.19,.02,8.37,.04,12.56,0,.9,.03,1.87,.57,2.59,1.12,1.48,3.38,.87,5.21,.56,4.01-.67,8.47,1.29,10.22,4.98,1.75,3.69,.1,8.79-3.68,10.29-2.4,.95-5.08,.44-7.66,.4-2.58-.04-5.54,.69-6.65,3.03-1.87,3.94,2.97,8.97,.68,12.67-1.39,2.26-4.53,2.43-7.17,2.36-3.8-.11-7.59-.22-11.39-.33,.66-2.89-.07-6.16-2.2-8.2-2.13-2.04-5.7-2.54-8.11-.83-2.4,1.71-3.03,5.62-1.01,7.78-4.37,1.09-9.4,2.08-13.07-.57-2.95-2.13-4.07-6.04-4.27-9.7s1.44-5.84,.84-9.45c2.6,.4,5.27,.8,7.82,.17s3.85-4.04,4.27-6.65c.47-2.94,.47-1.29-2.34-2.21-2.96-.96-5.75-.02-8.54,.91-.22-1.42-2.06-7.21-2.07-8.6-.02-1.85-.62-3.75-.82-5.59-.11-.96-.71-11.43,.04-11.45Z"></path><path class="cls-4" d="M433.36,45.67c1.67-.03,3.84-.49,4.04-2.22,.12-1-.54-1.89-.98-2.78-1.31-2.68-.6-6.25,1.58-8.21,2.18-1.96,5.62-2.16,8.03-.52s3.63,4.96,2.96,7.88c-.3,1.3-.93,2.56-.83,3.89,.18,2.32,2.56,3.82,4.77,3.99,2.21,.17,4.39-.58,6.6-.81,2.23-.23,4.76,.23,6.07,2.12,1.04,1.5,1.05,3.5,1.02,5.35-.04,2.74-.09,5.47-.13,8.21-.02,1.57-.22,3.44-1.54,4.17-1.79,1-3.7-.94-5.44-2.03-2.58-1.61-6.14-1.3-8.42,.74-2.29,2.05-3.14,5.67-2.02,8.59,1.12,2.92,4.12,4.93,7.13,4.76,2.12-.12,4.08-1.2,6.16-1.63,2.08-.43,4.67,.09,5.54,2.11,.4,.93,.36,2,.3,3.02-.27,5.18-.54,10.36-.81,15.54-.08,1.57-.25,3.33-1.4,4.35-.84,.74-2,.9-3.09,1.03-2.92,.34-5.85,.67-8.77,1.01-1.77,.2-3.59,.41-5.33,0-1.74-.4-3.44-1.51-4.11-3.24-.8-2.06,.01-4.37,.28-6.58,.27-2.21-.51-5.04-2.61-5.35-2.23-.32-3.7,2.5-3.77,4.86-.07,2.36,.52,4.89-.54,6.98-1.54,3-5.47,3.29-8.73,3.19-4.68-.14-10.04-.64-12.8-4.6-1.41-2.02-1.85-4.59-2.25-7.05-.26-1.6-.52-3.23-.26-4.83s1.13-3.18,2.55-3.82c1.98-.88,4.2,.28,6.34,.52,4.38,.49,8.68-3.76,8.46-8.37-.22-4.61-4.9-8.39-9.22-7.45-2.26,.49-4.58,2.05-6.7,1.08-2.32-1.06-2.64-4.3-2.61-6.94,.03-3.59-1.83-16.14,2.5-17.15,2.09-.49,5.35,.38,7.54,.34,3.5-.06,6.99-.11,10.49-.17Z"></path><path class="cls-1" d="M380.33,182.25c2.22-.31,4.52-.56,6.64,.17,2.12,.73,4.01,2.74,3.95,5.08-.08,2.98-3.14,5.29-2.93,8.26,.13,1.8,1.51,3.32,3.14,3.93s3.42,.45,5.09,0c2.09-.56,4.15-1.63,5.45-3.44,1.3-1.81,1.66-4.46,.47-6.35-1.1-1.74-3.43-3.04-3.09-5.1,.32-1.92,2.69-2.44,4.55-2.52,5.14-.23,10.27-.45,15.41-.68-.7-3.45-1.4-7.03-.66-10.46s3.35-6.7,6.71-6.89c2.93-.17,5.6,1.95,8.54,2.04,3.55,.11,6.85-3.29,6.8-7.01-.05-3.72-3.44-7.02-6.99-6.8-3.98,.25-7.7,4.19-11.42,2.71-2.4-.95-3.58-3.88-3.64-6.56-.06-2.68,.73-5.3,1.02-7.97,.18-1.67,.01-3.68-1.37-4.53-.72-.44-1.59-.44-2.43-.43-3.7,.04-7.4,.08-11.1,.12-2.08,.02-4.61-.23-5.51-2.2-.77-1.68,.15-3.63,.37-5.48,.46-3.86-2.87-7.79-6.58-7.57s-6.61,4.75-5.24,8.37c.48,1.27,1.4,2.59,.96,3.87-.54,1.56-2.56,1.72-4.14,1.6-3.93-.3-7.85-.59-11.78-.89-1.44-.11-3.09-.14-4.08,.96-.83,.91-.91,2.3-.94,3.56-.09,3.69-.18,7.37-.27,11.06-.02,.81-.03,1.67,.38,2.36,.69,1.17,2.19,1.35,3.44,1.74,3.24,1.01,5.69,4.36,5.76,7.9,.07,3.54-2.24,7-5.44,8.14-1.51,.54-3.31,.71-4.25,2.06-.54,.77-.65,1.77-.75,2.72-.43,4.07-.14,8.16,4.38,8.95,2.99,.53,6.59-.3,9.55-.71Z"></path></g><path class="cls-1" d="M321.63,36.19c.35,7.41,.69,14.82,1.04,22.23-.92,.76-2.2-.21-3.23-.83-3-1.82-7.52,.12-8.27,3.55s2.56,7.08,6.04,6.67c1.3-.15,2.77-.72,3.82,.06,.86,.64,.95,1.87,.97,2.94,.05,3.27,.1,6.54,.16,9.81,.02,1.01,.02,2.07-.48,2.94-.98,1.71-3.32,1.92-5.29,1.92-4.16,.01-8.32,.02-12.48,.04-.89,0-1.86,.03-2.57,.57-1.47,1.12-.86,3.38-.56,5.21,.67,4.01-1.28,8.47-4.95,10.22-3.67,1.75-8.74,.1-10.22-3.68-.94-2.4-.43-5.08-.4-7.66,.04-2.58-.69-5.54-3.01-6.65-3.91-1.87-8.91,2.97-12.59,.68-2.24-1.39-2.42-4.53-2.34-7.17,.11-3.8,.22-7.59,.33-11.39,2.87,.66,6.12-.07,8.14-2.2,2.03-2.13,2.52-5.7,.82-8.11-1.7-2.4-5.58-3.03-7.72-1.01-1.09-4.37-2.06-9.4,.56-13.07,2.12-2.95,6-4.07,9.63-4.27s7.3,.31,10.89-.29c-.4,2.6-.79,5.27-.17,7.82,.62,2.55,2.52,4.98,5.11,5.4,2.92,.47,5.78-1.83,6.68-4.64,.96-2.96,.02-5.75-.9-8.54,1.42-.22,2.67,.25,4.05,.23,1.84-.02,3.72-.62,5.56-.82,.95-.11,11.35-.71,11.38,.04Z"></path><path class="cls-4" d="M322.41,101.22c.03,1.67,.47,3.84,2.12,4.04,.95,.12,1.8-.54,2.66-.98,2.56-1.31,5.97-.6,7.84,1.58,1.87,2.18,2.06,5.62,.49,8.03s-4.73,3.63-7.53,2.96c-1.24-.3-2.44-.93-3.71-.83-2.21,.18-3.65,2.56-3.81,4.77-.16,2.21,.55,4.39,.77,6.6,.22,2.23-.22,4.76-2.03,6.07-1.43,1.04-3.34,1.05-5.11,1.02-2.61-.04-5.23-.09-7.84-.13-1.5-.02-3.28-.22-3.98-1.54-.95-1.79,.9-3.7,1.94-5.44,1.54-2.58,1.24-6.14-.71-8.42s-5.41-3.14-8.21-2.02c-2.79,1.12-4.71,4.12-4.54,7.13,.12,2.12,1.15,4.08,1.56,6.16s-.08,4.67-2.02,5.54c-.89,.4-1.91,.36-2.88,.3-4.95-.27-9.89-.54-14.84-.81-1.5-.08-3.18-.25-4.16-1.4-.71-.84-.86-2-.98-3.09-.32-2.92-.64-5.85-.97-8.77-.2-1.77-.39-3.59,0-5.33s1.44-3.44,3.1-4.11c1.97-.8,4.18,.01,6.29,.28,2.11,.27,4.81-.51,5.11-2.61,.31-2.23-2.39-3.7-4.65-3.77-2.25-.07-4.67,.52-6.66-.54-2.87-1.54-3.14-5.47-3.05-8.73,.14-4.68,.61-10.04,4.39-12.8,1.93-1.41,4.38-1.85,6.74-2.25,1.53-.26,3.09-.52,4.61-.26s3.04,1.13,3.65,2.55c.84,1.98-.27,4.2-.5,6.34-.47,4.38,3.6,8.68,8,8.46,4.4-.22,8.02-4.9,7.11-9.22-.47-2.26-1.96-4.58-1.03-6.7,1.01-2.32,4.1-2.64,6.63-2.61,3.43,.03,15.42-1.83,16.38,2.5,.46,2.09-.36,5.35-.33,7.54,.05,3.5,.11,6.99,.16,10.49Z"></path><path class="cls-1" d="M224.89,96.93c.29,2.22,.54,4.52-.16,6.64-.7,2.12-2.62,4.01-4.85,3.95-2.85-.08-5.05-3.14-7.89-2.93-1.72,.13-3.17,1.51-3.75,3.14-.58,1.62-.43,3.42,0,5.09,.54,2.09,1.56,4.15,3.28,5.45s4.26,1.66,6.07,.47c1.66-1.1,2.9-3.43,4.87-3.09,1.84,.32,2.33,2.69,2.41,4.55,.22,5.14,.43,10.27,.65,15.41,3.29-.7,6.71-1.4,9.99-.66,3.28,.74,6.4,3.35,6.59,6.71,.16,2.93-1.86,5.6-1.95,8.54-.11,3.55,3.14,6.85,6.69,6.8,3.55-.05,6.7-3.44,6.49-6.99-.24-3.98-4-7.7-2.59-11.42,.91-2.4,3.7-3.58,6.27-3.64,2.56-.06,5.07,.73,7.61,1.02,1.59,.18,3.52,.01,4.32-1.37,.42-.72,.42-1.59,.41-2.43-.04-3.7-.08-7.4-.11-11.1-.02-2.08,.22-4.61,2.1-5.51,1.61-.77,3.47,.15,5.23,.37,3.69,.46,7.44-2.87,7.23-6.58-.21-3.71-4.54-6.61-7.99-5.24-1.22,.48-2.47,1.4-3.7,.96-1.49-.54-1.64-2.56-1.53-4.14,.28-3.93,.57-7.85,.85-11.78,.1-1.44,.13-3.09-.91-4.08-.87-.83-2.19-.91-3.4-.94-3.52-.09-7.04-.18-10.56-.27-.77-.02-1.6-.03-2.26,.38-1.11,.69-1.29,2.19-1.66,3.44-.96,3.24-4.16,5.69-7.55,5.76-3.38,.07-6.68-2.24-7.78-5.44-.52-1.51-.68-3.31-1.97-4.25-.74-.54-1.69-.65-2.6-.75-3.88-.43-7.79-.14-8.55,4.38-.5,2.99,.29,6.59,.68,9.55Z"></path></g></svg>