<?xml version="1.0" encoding="UTF-8"?>
<svg version="1.1" viewBox="0 0 2000 2000" width="1280" height="1280" xmlns="http://www.w3.org/2000/svg">
<path transform="translate(0)" d="m0 0h2e3v2e3h-2e3z" fill="#FEFEFD"/>
<path transform="translate(963,491)" d="m0 0h71l34 5 30 8 22 8 25 11 17 9 21 13 14 10 13 10 11 10 8 7 21 21 9 11 14 18 12 19 10 17 11 23 10 26 7 24 6 28 2 15 2 31v25l-2 29-3 20-6 26-8 25-8 20-7 16-12 22-9 14-10 14-16 20-12 13-16 16-11 9-16 13-15 10-13 8-18 10-21 10-24 9-19 6-26 6-19 3-22 2h-45l-21-2-29-5-29-8-23-8-24-11-17-9-24-15-12-9-14-11-12-11-6-5-7-8-11-11-9-11-15-20-12-19-9-16-8-16-5-11-9-24-6-21-5-21-4-29v-67l3-25 7-30 6-20 8-21 7-16 10-19 13-22 13-18 11-13 7-8 9-10 14-14 8-7 16-13 20-14 20-12 15-8 25-11 30-10 24-6 24-4z" fill="#FFFFFE"/>
<path transform="translate(981,659)" d="m0 0h34l20 4 19 7 18 10 13 10 16 16 10 14 9 17 6 17 4 17 1 6v27l-5 22-6 16-9 17-9 12-9 10-7 8-10 13-10 18-6 13-7 21-6 21-4 6-6 4-9 1h-64l-8-3-6-7-9-32-6-16-11-21-10-14-13-15-12-15-8-13-7-15-5-17-2-9-1-9v-24l5-25 8-19 7-13 8-11 9-10 8-8 12-9 15-9 20-8z" fill="#C298AB"/>
<path transform="translate(963,491)" d="m0 0h71l34 5 30 8 22 8 25 11 17 9 21 13 14 10 13 10 11 10 8 7 21 21 9 11 14 18 12 19 10 17 11 23 10 26 7 24 6 28 2 15 2 31v25l-2 29-3 20-6 26-8 25-8 20-7 16-12 22-9 14-10 14-16 20-12 13-16 16-11 9-16 13-15 10-13 8-18 10-21 10-24 9-19 6-26 6-19 3-22 2h-45l-21-2-29-5-29-8-23-8-24-11-17-9-24-15-12-9-14-11-12-11-6-5-7-8-11-11-9-11-15-20-12-19-9-16-8-16-5-11-9-24-6-21-5-21-4-29v-67l3-25 7-30 6-20 8-21 7-16 10-19 13-22 13-18 11-13 7-8 9-10 14-14 8-7 16-13 20-14 20-12 15-8 25-11 30-10 24-6 24-4zm11 26-24 3-25 5-21 6-20 7-20 9-21 11-19 12-17 13-13 11-15 14-8 8-9 11-10 12-10 14-11 18-7 12-9 19-9 23-6 19-6 27-3 21-1 11v46l3 26 6 28 7 24 11 28 13 25 14 22 10 13 8 10 11 12 12 13 12 11 13 11 19 13 13 8 23 12 17 8 19 7 29 8 27 5 18 2h46l31-4 27-6 26-8 21-9 17-8 22-13 16-11 20-16 10-9 18-18 9-11 11-14 9-13 8-13 12-23 9-20 10-30 6-26 4-27 1-10v-38l-3-26-5-27-7-25-9-25-13-27-10-17-11-16-11-14-12-14-22-22-11-9-17-13-20-13-22-12-20-9-28-10-23-6-24-4-20-2z" fill="#BFABBB"/>
<path transform="translate(1073,682)" d="m0 0 5 2 13 12 10 10 10 14 9 17 6 17 4 17 1 6v27l-5 22-6 16-9 17-9 12-9 10-7 8-10 13-10 18-6 13-7 21-6 21-4 6-6 4-9 1h-64v-1h16l-2-4-3-2-1-5 2-9 1-134 5-9 8-7 7-3 13-3 8-5 1-1 1-11 1-6 2-2h7l5 6v10l-4 13 8-4 3-2 8 1h11l11-4 7-7 4-9v-15l-4-10-4-5-4 2-8 7-6 2h-7l-5-5 1-4 5-4 7-3 5-7-1-5-5-6-4-2-16-1-6-9-4-4-10-2-6 2-4 4-3 7-2 6-1 1h-6l-4-4v-9l2-8h-13l-4 2 5 10 2 8-1 7-2 2h-6l-4-4-3-10-8-6h-8l-6 4-4 5-3 8-3 2-9 3-5 6-1 8h12l9 4 6 4 2 4-1 6-4 3-4-1-9-5h-9l-6 4-3 5-1 10 5 10 3 7 5 10 5 6 14 8v7l-3 3h-8l-10-5-5-5-7-9-9-19-4-9v-15l3-7 6-8v-16l4-10 7-8 9-5 6-10 9-7 13-4h9l8-6 10-3h10l8 3 7 1 6-2h12l10 4 8 7 1 3h12v-2l12-2v-2l7-2-2-5 5-2 2 1 1-3 2 1 1-5-5-5-2-5h-3z" fill="#C298AB"/>
<path transform="translate(963,491)" d="m0 0h71l34 5 30 8 22 8 25 11 17 9 21 13 14 10 10 8 1 3-5 1-4-2 1 2-2 4 1 2-2 2h-3l-1 2 2 1 2 6-1 1 9 9h-3l-9-8-16-12-20-13-22-12-20-9-28-10-23-6-24-4-20-2h-46l-24 3-25 5-21 6-20 7-20 9-21 11-19 12-17 13-13 11-15 14-7 7-9 11-10 12-10 14-11 18-7 12-9 19-9 23-6 19-6 27-3 21-1 11v46l3 26 6 28 7 24 11 28 13 25 14 22 10 13 8 10 6 7 1 7-2 2 1 4-6 1 1 6-1 1-1 2 1 4-3-2-1 2 3 1 7 8 11 11h-3l-31-31-9-11-15-20-12-19-9-16-8-16-5-11-9-24-6-21-5-21-4-29v-67l3-25 7-30 6-20 8-21 7-16 10-19 13-22 13-18 11-13 7-8 9-10 14-14 8-7 16-13 20-14 20-12 15-8 25-11 30-10 24-6 24-4z" fill="#CC809A"/>
<path transform="translate(981,659)" d="m0 0h34l20 4 19 7 18 10 2 5h3l3 5v2l5 2-1 7-3-1-1 2-7 1 3 5-4 2h-4v2l-7 2h-5v2h-12l-7-8-8-4-4-1h-12l-6 2-7-1-8-3h-10l-10 3-8 6h-9l-13 4-7 6h-2l-2 5-4 6-10 6-6 8-3 8v16l-7 9-2 6v15l4 9 4 8 1 13 5 8v2h2l2 7 2 6 1 5 3 3 3 2-1 5v3l3 1 1 4-2 3-7-1-5-3-6-1v9l4 7-4-2-10-11-12-16-8-14-6-14-4-14-2-9-1-9v-24l5-25 8-19 7-13 8-11 9-10 8-8 12-9 15-9 20-8z" fill="#CC809A"/>
<path transform="translate(982,700)" d="m0 0h10l8 3 7 1 6-2h12l10 4 8 7 2 3 12 2 8 4 7 6 4 6 4 9 10 9 7 12 2 7v17l-4 12-6 9-7 7-13 6-3 1-20 1-9 4h-18l-7-3h-7l-10 4-2 2-1 108v32l-1 1h-14l-1-7 1-134 5-9 8-7 7-3 13-3 8-5 1-1 1-11 1-6 2-2h7l5 6v10l-4 13 8-4 3-2 8 1h11l11-4 7-7 4-9v-15l-4-10-4-5-4 2-8 7-6 2h-7l-5-5 1-4 5-4 7-3 5-7-1-5-5-6-4-2-16-1-6-9-4-4-10-2-6 2-4 4-3 7-2 6-1 1h-6l-4-4v-9l2-8h-13l-4 2 5 10 2 8-1 7-2 2h-6l-4-4-3-10-8-6h-8l-6 4-4 5-3 8-3 2-9 3-5 6-1 8h12l9 4 6 4 2 4-1 6-4 3-4-1-9-5h-9l-6 4-3 5-1 10 5 10 3 7 5 10 5 6 14 8v7l-3 3h-8l-10-5-5-5-7-9-9-19-4-9v-15l3-7 6-8v-16l4-10 7-8 9-5 6-10 9-7 13-4h9l8-6z" fill="#FFFFFE"/>
<path transform="translate(980,715)" d="m0 0h10l3 1-1 8v9l3 3h6l2-6 3-7 5-2 5 5v3l-2 1v2l4 2 8 8 2 1 1 8v3h-4l2 4-2 13-1 2 3 1-7 2v2h-3l-1 5-4 2h-3l-2 7-7 5h-2l-1 5-4 1-7 4-1 3h-2l-4 7-4 4-4 7h-8l-2 3h-2l-1 2-4-1 1 3h-4l-1 5-5-1-4-4-11-6-8-10-5-13-5-8-1-9 3-8 6-5 2-1h9l9 5 4 1 4-4-1-6-4-4-8-4-3-1-12-1v-8l6-7 11-4 4-9 6-7 4-2h8l8 6 3 9 2 4 2 1h6l2-3-1-10-4-9-2-5z" fill="#CC7F9A"/>
<path transform="translate(769,1033)" d="m0 0 7 6 9 10 12 11 13 11 19 13 13 8 23 12 1 3 6 3 1 6h-6v3h-2l-1 6 1 4 2 2 4 2 1 3-6-1-27-13-17-10-15-10-11-8-14-11-11-12-12-12 1-3 2 1-1-3v-3l2-1-1-4 5-1h2v-3l-2-1 2-2-1-5z" fill="#C298AB"/>
<path transform="translate(1198,563)" d="m0 0 5 3 4-1 1-2 13 12 8 7 21 21 9 11 14 18 12 19 10 17 4 8-1 3-3-5v-2l-2-1-3-7-1-2-2 1-4-6-2-2h-3l-1-3h-4l2 11-1 5 4 12 1 7 1 8-3-3-11-21-10-16-10-14-9-11-11-13-21-21-7-8-4-5 2-1-3-5 1-3 4-2v-3l1-3z" fill="#C398AB"/>
<path transform="translate(1223,1211)" d="m0 0h14l7 3 8 7 4 7 1 4v11l-3 8-5 6-10 6-4 1h-10l-9-4-8-7-4-9v-12l4-10 5-6z" fill="#442832"/>
<path transform="translate(513,1211)" d="m0 0h20l10 2 8 5 4 5 3 7v15l-4 9-7 6-8 3-8 1h-19l-1-4 1-48z" fill="#442832"/>
<path transform="translate(637,1211)" d="m0 0h14l3 5 8 20 3 10 3-3 13-32h15v52h-13v-25l1-4h-2l-2 9-5 12-3 8-9 1-3-2-10-26-1 27-11 1-1-1z" fill="#442832"/>
<path transform="translate(1056,936)" d="m0 0h2l-3 11-8 28-4 6-6 4-9 1h-64v-1h16l-2-4-3-2-1-5 1-4h2v2l14-1 1-21 2 3 2-3 10-3 2-1h9l3 3 1 16 6-2 4-2 1-5h7l6 4 2-5 5-12 3-6z" fill="#BFABBB"/>
<path transform="translate(956,1211)" d="m0 0h25l7 2 7 8 1 2v10l-4 6-4 3h-2l3 7 6 11v3l-5 1-8-1-7-11-4-8-2-1-1 20-12 1-1-4v-48z" fill="#442832"/>
<path transform="translate(806,1211)" d="m0 0h11l5 5 12 19 4 6 2 1v-31h12l1 1v19l-1 32-1 1h-8l-5-3-12-17-7-10-1 29h-12l-1-4v-18z" fill="#442832"/>
<path transform="translate(1142,1211)" d="m0 0h12l8 11 12 19 1 1 1-31h12l1 1v44l-1 8h-8l-5-2-11-15-8-12-1-1-1 29h-12z" fill="#442832"/>
<path transform="translate(590,1211)" d="m0 0h13l5 10 13 37 1 5-5 1-8-1-2-8h-21l-2 8-3 1h-9l-1-3 15-42z" fill="#442832"/>
<path transform="translate(885,1211)" d="m0 0h13l3 5 13 36 3 8-1 4-12-1-2-8h-18l-3 1-3 7h-12l3-11 14-38z" fill="#442832"/>
<path transform="translate(759,1211)" d="m0 0h12l3 2 10 28 7 19v3h-12l-3-6v-2h-20l-3 8-12 1-1-3 15-42 3-7z" fill="#442832"/>
<path transform="translate(1389,1211)" d="m0 0h10l1 1 1 18 1 2 11-15 7-6h12l-2 5-11 13-5 7 2 5 14 17 2 3v3h-10l-5-2-9-10-6-9h-1l-1 20-1 1h-11v-52z" fill="#442832"/>
<path transform="translate(1344,1211)" d="m0 0h15l7 4 4 5 1 6h-12l-8-5-4 2v5l9 4 10 5 5 6v10l-4 6-6 4-3 1h-11l-9-4-5-7v-5h9l5 2 2 3h6l3-3-2-4-18-8-5-6-1-5 2-8 5-6z" fill="#442832"/>
<path transform="translate(1268,1211)" d="m0 0h10l4 1 12 37 4-10 9-27 1-1h12l-2 10-15 41-2 2h-8l-7-1-7-18-11-32z" fill="#442832"/>
<path transform="translate(1059,1211)" d="m0 0h37v8l-4 8-13 19-4 6 20 1 1 10-9 1h-24l-4-1v-9l7-11 9-13 5-8h-21z" fill="#442832"/>
<path transform="translate(1012,1211)" d="m0 0h31l1 2-1 9h-19v10h13l5 1-1 9-16 1-1 10h19v10l-7 1h-24l-1-51z" fill="#442832"/>
<path transform="translate(1054,1428)" d="m0 0h12l6 4 4 5 2 6v10l-3 7-5 6-8 3-8-1-5-3-5-6-2-7v-8l3-8 5-6z" fill="#FBF8F8"/>
<path transform="translate(962,993)" d="m0 0h62l13 1 2 2v7l-2 4-11 1h-19l-46-1-4-4v-6l3-3z" fill="#BFACBC"/>
<path transform="translate(1444,1211)" d="m0 0h10l4 1 9 20 8-16 3-5h13l-2 6-8 15-7 15-1 16h-12l-1-14-5-13-12-24z" fill="#442832"/>
<path transform="translate(625,1428)" d="m0 0 20 1 6 5 4 9v10l-4 9-5 4-3 1-19 1v-39z" fill="#F9F6F7"/>
<path transform="translate(1253,1428)" d="m0 0 20 1 6 5 4 9v10l-4 9-5 4-16 2h-6v-39z" fill="#F8F4F5"/>
<path transform="translate(979,1014)" d="m0 0h22l30 1v12l-1 1h-63l-2-2v-10l1-1z" fill="#BFABBB"/>
<path transform="translate(1226,1222)" d="m0 0h8l6 3 4 7v11l-4 6-4 3-9 1-6-3-4-6-1-10 4-8z" fill="#FBF8F8"/>
<path transform="translate(1112,1211)" d="m0 0h12v52h-12l-1-1v-35z" fill="#442832"/>
<path transform="translate(713,1211)" d="m0 0h11l1 1v51h-12z" fill="#442832"/>
<path transform="translate(525,1222)" d="m0 0 13 1 6 5 2 7-1 10-4 5-8 3h-8l-1-1v-29z" fill="#FAF8F8"/>
<path transform="translate(828,715)" d="m0 0 9 1 22 9 5 5-1 6-4 4-10-3-17-7-6-3-2-5 2-6z" fill="#CC819B"/>
<path transform="translate(930,616)" d="m0 0 4 2 6 12 7 17v5l-4 4h-7l-5-8-8-21v-7l4-3z" fill="#CC819B"/>
<path transform="translate(1064,617)" d="m0 0h6l5 5-3 10-8 19-4 5-3 1-5-3-2-2 1-7 11-26z" fill="#CB829C"/>
<path transform="translate(866,657)" d="m0 0h7l11 9 8 8 5 7-1 5-4 4-5-1-8-7-14-14-1-7z" fill="#CC819B"/>
<path transform="translate(827,784)" d="m0 0h13l10 1 2 5-1 6-4 2h-31l-4-2-1-2v-7l2-2z" fill="#CB829C"/>
<path transform="translate(1096,1428)" d="m0 0h6l2 7 6 22 2-2 7-20-1-6 5-1 4 10 6 18 1 1 5-16 3-12 3-1-2 9-7 22-2 7h-4l-8-25-1-2-8 21-2 7-4-1-10-33z" fill="#442832"/>
<path transform="translate(998,603)" d="m0 0 5 1 2 7v28l-2 5h-9l-2-2v-36l2-2z" fill="#CB839C"/>
<path transform="translate(1126,656)" d="m0 0 5 2 1 1v7l-9 10-11 11-3 2h-5l-4-3 1-7 9-10 10-10z" fill="#CA849E"/>
<path transform="translate(1166,715)" d="m0 0h4l1 3v8l-14 7-15 6h-6l-3-4v-5l6-5 21-8z" fill="#C299AC"/>
<path transform="translate(1148,785)" d="m0 0h36l1 1v9l-2 2-16 1h-16l-5-3-1-1 1-7z" fill="#BFABBB"/>
<path transform="translate(980,1036)" d="m0 0h36l2 1v10l-1 1h-36l-2-1-1-6z" fill="#C1ADBC"/>
<path transform="translate(625,1428)" d="m0 0 20 1 6 5 4 9v10l-4 9-5 4-3 1-19 1v-39zm7 2-2 2v33l1 1h8l5-3 4-5 2-6v-10l-4-8-3-3z" fill="#442832"/>
<path transform="translate(1253,1428)" d="m0 0 20 1 6 5 4 9v10l-4 9-5 4-16 2h-6v-39zm7 2-2 2v33l1 1h7l5-2 6-7 1-5v-9l-3-8-4-4z" fill="#442832"/>
<path transform="translate(1054,1428)" d="m0 0h12l6 4 4 5 2 6v10l-3 7-5 6-8 3-8-1-5-3-5-6-2-7v-8l3-8 5-6zm2 2-5 4-3 5-1 4v8l2 8 6 7 2 1h6l6-5 3-5 1-5v-10l-4-8-5-4z" fill="#442832"/>
<path transform="translate(841,1428)" d="m0 0 3 3 13 34v3h-5l-4-9-2-4-13-1-3 11-2 3h-2l3-9 8-21z" fill="#442832"/>
<path transform="translate(1008,946)" d="m0 0h9l3 3v22l-1 1h-14l-1-2v-13l2-10z" fill="#FFFFFE"/>
<path transform="translate(993,1428)" d="m0 0h5l7 8 13 20 1 2v-30l4 1-1 38-5-2-10-16-10-14-2-1 1 34h-3z" fill="#442832"/>
<path transform="translate(980,715)" d="m0 0h10l3 1-1 8v9l3 3h6l2-6 2-4v9l-6 6-8 1-1-4-5 1-2 2-4-16-4-8z" fill="#C398AB"/>
<path transform="translate(1310,1429)" d="m0 0h20l1 1v8l-2-1-2-5-9-1-7 2-4 6-1 4 1 13 3 6 3 3 7 1 4-1 2-4 1-6v-3l3-1 3 3-3 9-5 4-3 1h-10l-7-4-4-7-1-4v-9l3-9 5-5z" fill="#442832"/>
<path transform="translate(1355,1428)" d="m0 0 21 1 1 2-2 3-1-3h-15l1 16h16l-1 3h-15v15l15-1 1-2h2l-1 5-23 1-1-1v-38z" fill="#442832"/>
<path transform="translate(712,1429)" d="m0 0h19l1 1v7l-4-5-4-1h-7l-5 3-3 5-1 5 1 13 4 6 4 3h6l5-5 1-2v-7l4-1 2 1-2 9-4 5-4 2h-11l-5-3-6-8-1-4v-10l4-9z" fill="#442832"/>
<path transform="translate(1360,1449)" d="m0 0h15l2 1 1 12h-2l-1 3-15 1-1-1v-15z" fill="#F4EDEF"/>
<path transform="translate(1208,1428)" d="m0 0 23 1-1 5-1-3-16-1 1 17h14l-1 3-14-1 1 16h15v-5l2 3v4l-23 1-1-3v-36z" fill="#442832"/>
<path transform="translate(1224,1446)" d="m0 0h5l2 17-5 3h-12l-1-1v-16h14l1-2z" fill="#F6F0F2"/>
<path transform="translate(1166,1428)" d="m0 0h6l1 37 12-1 4-3 1 4-3 2-21 1z" fill="#442832"/>
<path transform="translate(793,1428)" d="m0 0 18 1-1 7h-1v-5h-10v34l1 2h-9l1-3 1-34-9 1-1 5-2-1v-6z" fill="#442832"/>
<path transform="translate(947,1428)" d="m0 0h5l1 18v21l-1 1h-6v-39z" fill="#442832"/>
<path transform="translate(878,1428)" d="m0 0h5l1 2v35l7 1v1l-13 1-1-3v-36z" fill="#442832"/>
<path transform="translate(677,1428)" d="m0 0 5 1v38l-1 1h-6l1-39z" fill="#442832"/>
<path transform="translate(757,1428)" d="m0 0 5 1-1 39h-6l1-39z" fill="#442832"/>
<path transform="translate(969,1222)" d="m0 0h10l4 3v8l-4 2h-10l-1-1v-11z" fill="#F6F1F2"/>
<path transform="translate(1130,777)" d="m0 0h1v27l-5 22-2 3-2-5 4-18 2-18 1-3-1-5z" fill="#BFACBC"/>
<path transform="translate(970,1428)" d="m0 0h2l-1 3-8 7-4 5 1 4 6 7 4 10 3 2v2h-6l-2-1-5-13-5-7 2-5 11-13z" fill="#442832"/>
<path transform="translate(765,1227)" d="m0 0 2 1 5 16-2 1h-10l-1-2 5-15z" fill="#F2E7EB"/>
<path transform="translate(890,1227)" d="m0 0h2l4 11 1 6-2 1h-9l-1-3 4-11z" fill="#F2E8EC"/>
<path transform="translate(596,1227)" d="m0 0 3 3 3 11v4h-11l-1-2 5-15z" fill="#F1E7EB"/>
<path transform="translate(840,1437)" d="m0 0h2l4 13v3h-12l3-9z" fill="#F6F0F2"/>
<path transform="translate(1131,659)" d="m0 0 1 4-3 1-4 7-3 3h-2l-2-5 1-3 6-5z" fill="#C398AB"/>
<path transform="translate(959,725)" d="m0 0 5 2 4 4 3 10 3 4-4-1-2-2-2-8-7-8z" fill="#C29BAE"/>
<path transform="translate(978,1041)" d="m0 0h2v3h2v2l6-1 4 3h-11l-2-1z" fill="#C29BAE"/>
</svg>
