<?xml version="1.0" standalone="no"?>
<!DOCTYPE svg PUBLIC "-//W3C//DTD SVG 20010904//EN"
 "http://www.w3.org/TR/2001/REC-SVG-20010904/DTD/svg10.dtd">
<svg version="1.0" xmlns="http://www.w3.org/2000/svg"
 width="500.000000pt" height="500.000000pt" viewBox="0 0 500.000000 500.000000"
 preserveAspectRatio="xMidYMid meet">

<g transform="translate(0.000000,500.000000) scale(0.100000,-0.100000)"
fill="#000000" stroke="none">
<path d="M2394 3760 c-6 -6 -27 -13 -48 -15 -21 -3 -47 -10 -58 -16 -15 -8
-19 -8 -14 0 4 6 2 11 -3 11 -6 0 -11 -4 -11 -9 0 -7 -43 -29 -70 -35 -3 -1
-10 -5 -17 -9 -6 -4 -14 -1 -16 5 -3 7 -6 5 -6 -6 -1 -11 -4 -16 -8 -13 -3 4
-15 -1 -26 -10 -15 -13 -18 -14 -12 -3 8 13 7 13 -8 1 -9 -7 -17 -10 -18 -5 0
5 -4 -1 -10 -14 -5 -13 -13 -21 -18 -17 -6 3 -18 -6 -27 -20 -12 -18 -23 -25
-36 -21 -14 3 -18 1 -14 -11 4 -9 1 -13 -6 -11 -7 3 -25 -12 -40 -33 -15 -20
-36 -40 -47 -44 -12 -3 -21 -13 -21 -20 0 -8 -9 -20 -21 -28 -11 -8 -16 -16
-10 -18 6 -2 0 -16 -14 -32 -14 -15 -23 -27 -20 -27 15 0 -18 -40 -33 -41 -11
0 -13 -2 -4 -6 10 -4 9 -9 -5 -20 -10 -8 -13 -12 -6 -9 8 5 8 0 0 -18 -7 -13
-15 -22 -18 -20 -4 2 -5 -6 -1 -18 3 -12 1 -19 -4 -15 -6 3 -10 -4 -10 -16 -1
-39 -16 -89 -24 -77 -4 7 -8 -1 -8 -17 -2 -52 -9 -118 -17 -155 -5 -24 -3 -43
4 -51 6 -8 12 -26 13 -41 2 -26 12 -34 22 -18 3 5 6 46 6 93 3 111 10 170 22
163 6 -4 8 5 3 25 -4 17 -3 31 3 31 5 0 8 11 7 25 -2 15 2 25 10 25 7 0 11 10
10 24 -2 14 3 27 11 30 8 3 14 12 14 21 0 8 6 15 13 15 8 0 7 4 -3 10 -11 7
-11 10 -2 10 7 0 10 5 7 10 -3 6 -1 10 5 10 6 0 8 5 5 10 -3 6 1 13 9 16 9 3
13 10 10 15 -3 5 0 9 6 9 6 0 8 5 5 10 -3 6 4 10 17 10 16 0 19 3 10 9 -11 7
-10 9 3 15 9 3 13 11 10 16 -4 6 -1 9 6 8 7 -2 13 3 14 10 0 6 5 12 10 13 17
2 45 19 45 28 0 17 69 80 74 68 2 -7 5 -4 5 6 1 9 8 17 16 17 8 0 15 5 15 11
0 5 4 8 9 4 6 -3 15 4 21 16 7 11 14 18 17 16 2 -3 29 7 60 23 36 19 65 27 86
24 18 -2 27 0 19 4 -19 13 82 35 126 27 29 -5 42 -2 52 9 7 9 19 16 27 16 8 0
13 6 11 13 -6 15 -89 22 -104 7z"/>
<path d="M1280 1904 l0 -65 42 3 c101 7 99 128 -3 128 l-39 0 0 -66z m75 1 c0
-23 -5 -31 -22 -33 -20 -3 -23 1 -23 33 0 32 3 36 23 33 17 -2 22 -10 22 -33z"/>
<path d="M1452 1912 c-26 -70 -26 -72 -7 -72 8 0 15 5 15 10 0 6 14 10 30 10
17 0 30 -4 30 -10 0 -5 9 -10 20 -10 19 0 18 2 -4 63 -33 86 -55 89 -84 9z
m46 -21 c-15 -5 -21 7 -13 26 7 17 8 17 15 -2 4 -11 3 -22 -2 -24z"/>
<path d="M1590 1905 c0 -51 3 -65 15 -65 10 0 15 11 16 38 l1 37 15 -37 c9
-21 21 -38 28 -38 7 0 20 17 28 38 l16 37 0 -37 c1 -27 5 -38 16 -38 12 0 15
14 15 65 0 57 -2 65 -19 65 -13 0 -24 -14 -36 -42 l-18 -43 -19 43 c-13 29
-25 42 -38 42 -18 0 -20 -7 -20 -65z"/>
<path d="M1780 1905 c0 -51 3 -65 15 -65 12 0 15 14 15 65 0 51 -3 65 -15 65
-12 0 -15 -14 -15 -65z"/>
<path d="M1873 1909 c-25 -67 -23 -80 7 -61 24 15 60 16 60 2 0 -5 9 -10 20
-10 19 0 19 1 -3 63 -16 45 -28 63 -42 65 -16 2 -24 -9 -42 -59z m45 -18 c-15
-5 -19 4 -11 24 6 18 7 18 13 -1 4 -10 3 -21 -2 -23z"/>
<path d="M2010 1905 c0 -58 2 -65 20 -65 16 0 20 7 20 37 l0 38 25 -38 c40
-57 55 -50 55 28 0 50 -3 65 -14 65 -10 0 -16 -13 -18 -37 l-3 -38 -23 38
c-14 22 -31 37 -43 37 -17 0 -19 -8 -19 -65z"/>
<path d="M2205 1958 c-2 -7 -13 -37 -24 -65 -19 -52 -19 -53 0 -53 10 0 19 5
19 10 0 6 14 10 30 10 17 0 30 -4 30 -10 0 -5 7 -10 15 -10 20 0 19 8 -6 74
-16 41 -27 56 -41 56 -10 0 -21 -6 -23 -12z m35 -53 c0 -8 -4 -15 -10 -15 -5
0 -10 7 -10 15 0 8 5 15 10 15 6 0 10 -7 10 -15z"/>
<path d="M2390 1906 c0 -51 3 -66 14 -66 8 0 16 12 18 28 l4 27 14 -27 c7 -16
21 -28 32 -28 16 0 17 3 7 21 -8 17 -8 27 2 46 19 36 1 57 -50 61 l-41 3 0
-65z m68 22 c-7 -19 -38 -22 -38 -4 0 10 9 16 21 16 12 0 19 -5 17 -12z"/>
<path d="M2530 1905 l0 -65 40 0 c29 0 40 4 40 15 0 9 -9 15 -25 15 -14 0 -25
5 -25 10 0 6 9 10 20 10 11 0 20 7 20 15 0 8 -9 15 -20 15 -11 0 -20 7 -20 15
0 9 9 15 25 15 14 0 25 5 25 10 0 6 -18 10 -40 10 l-40 0 0 -65z"/>
<path d="M2650 1960 c0 -5 11 -10 25 -10 14 0 25 -3 25 -7 0 -3 -11 -21 -25
-39 -38 -50 -33 -64 20 -64 32 0 45 4 45 14 0 8 -11 16 -25 18 l-25 3 25 37
c14 20 25 42 25 47 0 6 -20 11 -45 11 -25 0 -45 -4 -45 -10z"/>
<path d="M2780 1905 c0 -51 3 -65 15 -65 12 0 15 14 15 65 0 51 -3 65 -15 65
-12 0 -15 -14 -15 -65z"/>
<path d="M2850 1905 c0 -58 2 -65 20 -65 16 0 20 7 20 37 l0 38 25 -38 c40
-57 55 -50 55 28 0 50 -3 65 -14 65 -10 0 -16 -13 -18 -37 l-3 -38 -23 38
c-14 22 -31 37 -43 37 -17 0 -19 -8 -19 -65z"/>
<path d="M3026 1948 c-22 -31 -20 -64 4 -88 41 -41 110 -13 110 44 0 41 -26
66 -68 66 -21 0 -36 -7 -46 -22z m79 -43 c0 -25 -4 -31 -26 -33 -29 -3 -44 18
-33 50 4 14 13 18 32 16 23 -2 27 -8 27 -33z"/>
<path d="M3193 1905 c17 -53 25 -65 42 -65 17 0 26 13 43 62 12 33 20 63 18
66 -13 12 -34 -10 -46 -49 l-13 -44 -15 48 c-11 32 -21 47 -33 47 -16 0 -16
-5 4 -65z"/>
<path d="M3342 1958 c-20 -20 -14 -38 23 -59 19 -12 32 -25 29 -31 -4 -6 -10
-6 -17 1 -13 13 -47 15 -47 3 0 -16 25 -32 50 -32 55 0 70 54 20 73 -16 6 -30
17 -30 24 0 16 12 17 27 2 17 -17 37 -1 22 17 -14 17 -61 18 -77 2z"/>
<path d="M3470 1905 c0 -51 3 -65 15 -65 10 0 15 10 15 28 l1 27 22 -27 c13
-16 31 -28 41 -28 16 0 16 4 -7 33 l-25 33 25 32 c23 30 23 32 5 32 -11 0 -30
-12 -41 -27 l-20 -28 -1 28 c0 17 -5 27 -15 27 -12 0 -15 -14 -15 -65z"/>
<path d="M3610 1965 c0 -2 9 -19 20 -37 11 -18 20 -45 20 -60 0 -18 5 -28 15
-28 9 0 15 9 15 21 0 11 12 40 26 65 24 41 25 44 7 44 -12 0 -25 -12 -33 -27
l-13 -28 -11 28 c-6 16 -17 27 -28 27 -10 0 -18 -2 -18 -5z"/>
<path d="M1560 1380 c0 -27 5 -50 10 -50 6 0 10 23 10 50 0 28 -4 50 -10 50
-5 0 -10 -22 -10 -50z"/>
<path d="M1608 1419 c6 -7 12 -25 12 -39 0 -14 -6 -32 -12 -39 -11 -10 -10
-11 4 -6 21 8 32 38 23 64 -3 11 -13 22 -23 26 -14 5 -15 4 -4 -6z"/>
<path d="M1691 1383 c0 -29 3 -53 7 -53 4 0 6 17 4 38 -6 64 -10 69 -11 15z"/>
<path d="M1772 1418 c-18 -18 -15 -64 6 -79 14 -11 15 -11 5 1 -16 18 -17 62
-1 78 7 7 10 12 7 12 -3 0 -10 -5 -17 -12z"/>
<path d="M1815 1420 c3 -5 8 -10 11 -10 2 0 4 5 4 10 0 6 -5 10 -11 10 -5 0
-7 -4 -4 -10z"/>
<path d="M1891 1383 c0 -29 3 -53 7 -53 4 0 6 17 4 38 -6 64 -10 69 -11 15z"/>
<path d="M1980 1380 c0 -27 5 -50 10 -50 6 0 10 23 10 50 0 28 -4 50 -10 50
-5 0 -10 -22 -10 -50z"/>
<path d="M2097 1417 c-3 -9 -2 -17 3 -17 6 0 10 -8 10 -18 0 -10 7 -27 16 -38
14 -18 15 -18 8 6 -3 14 -12 38 -18 55 -10 24 -13 26 -19 12z"/>
<path d="M2195 1380 c0 -27 3 -50 8 -50 4 0 7 23 7 50 0 28 -3 50 -7 50 -5 0
-8 -22 -8 -50z"/>
<path d="M2373 1380 c0 -30 2 -43 4 -27 2 15 2 39 0 55 -2 15 -4 2 -4 -28z"/>
<path d="M2409 1413 c-13 -16 -12 -17 4 -4 9 7 17 15 17 17 0 8 -8 3 -21 -13z"/>
<path d="M2512 1385 c17 -25 34 -43 36 -40 7 6 -48 85 -59 85 -5 0 6 -20 23
-45z"/>
<path d="M2622 1418 c-18 -18 -15 -64 6 -79 14 -11 15 -11 5 1 -16 18 -17 62
-1 78 7 7 10 12 7 12 -3 0 -10 -5 -17 -12z"/>
<path d="M2673 1416 c11 -16 8 -61 -5 -75 -11 -10 -10 -11 5 -6 9 4 17 11 17
15 0 5 2 15 5 23 3 7 -2 22 -12 33 -10 11 -15 15 -10 10z"/>
<path d="M2746 1408 c3 -13 12 -36 18 -53 12 -28 13 -29 18 -7 3 12 2 20 -2
17 -5 -3 -12 10 -16 30 -3 19 -11 35 -16 35 -5 0 -6 -10 -2 -22z"/>
<path d="M2798 1412 c-4 -12 -2 -20 2 -17 5 3 11 -8 15 -25 4 -16 11 -30 16
-30 12 0 11 8 -10 55 -16 35 -18 37 -23 17z"/>
<path d="M2923 1380 c0 -30 2 -43 4 -27 2 15 2 39 0 55 -2 15 -4 2 -4 -28z"/>
<path d="M3020 1380 c0 -27 3 -50 8 -50 4 0 7 23 7 50 0 28 -3 50 -7 50 -5 0
-8 -22 -8 -50z"/>
<path d="M3130 1380 c0 -27 5 -50 10 -50 6 0 10 23 10 50 0 28 -4 50 -10 50
-5 0 -10 -22 -10 -50z"/>
<path d="M3178 1419 c6 -7 12 -25 12 -39 0 -14 -6 -32 -12 -39 -11 -10 -10
-11 4 -6 21 8 32 38 23 64 -3 11 -13 22 -23 26 -14 5 -15 4 -4 -6z"/>
<path d="M3260 1411 c-14 -27 -13 -44 5 -67 14 -18 14 -17 5 8 -10 29 -4 58
14 70 8 5 7 8 -1 8 -7 0 -17 -9 -23 -19z"/>
<path d="M3385 1380 c0 -27 3 -50 8 -50 4 0 7 23 7 50 0 28 -3 50 -7 50 -5 0
-8 -22 -8 -50z"/>
<path d="M2403 1355 c7 -14 15 -25 19 -25 4 0 2 11 -4 25 -6 14 -15 25 -19 25
-4 0 -2 -11 4 -25z"/>
<path d="M1817 1349 c-4 -16 -3 -18 9 -8 16 13 19 29 5 29 -5 0 -11 -9 -14
-21z"/>
<path d="M3317 1351 c-4 -17 -3 -21 5 -13 5 5 8 16 6 23 -3 8 -7 3 -11 -10z"/>
</g>
</svg>
