<svg transform="scale(2)" id="_0342_Influencer" xmlns="http://www.w3.org/2000/svg" viewBox="0 0 500 500" class="show_show__wrapper__graphic__5Waiy "><title>React</title><defs><style>.cls-1{fill:#d6b2a4;}.cls-2{fill:#fff;}.cls-3{fill:#3c4368;}.cls-4{fill:#ffde91;}.cls-5{fill:#af93a2;}.cls-6{fill:#292e54;}.cls-7{fill:#e6e7e8;}</style></defs><g id="character"><path class="cls-6" d="M208.41,193.4c-6.98,2.68-15.23,3.68-19.99,9.45-4.4,5.35-4.25,13.1-2.8,19.87,2.6,12.15,9.95,24.59,21.96,27.74,9.22,2.42,18.81-1.12,27.86-4.12,9.04-3.01,19.3-5.44,27.79-1.11,8.21,4.19,12.27,13.42,18.31,20.38,10.9,12.57,29.74,17.57,45.44,12.06,9.27-3.26,17.95-11.2,17.89-21.03-.06-10.16-9.01-17.93-12.31-27.54-5.85-17.05,6.95-35.36,4.68-53.24-1.06-8.36-5.45-16.09-11.38-22.08-5.93-5.99-13.32-10.37-21.06-13.73-13.73-5.97-29.39-8.88-43.76-4.66-10.24,3-19.55,10.15-24.46,19.71-2.2,4.28-2.76,9.01-4.6,13.4-2.1,4.99-4.53,9.79-8.09,13.9-4.18,4.84-9.52,8.69-15.5,10.99Z"></path><path class="cls-6" d="M90.4,193.77c-.22,4.13-.43,8.33,.61,12.33,1.04,4,3.53,7.84,7.34,9.45,5.59,2.36,12.27-.87,15.81-5.8,3.54-4.92,4.68-11.12,5.73-17.1,2.24-12.76,4.49-25.52,6.55-38.3,.45-2.8,.81-5.97-.91-8.23-2.24-2.94-6.67-2.74-10.29-2.01-8.02,1.62-20.68,3.56-22.86,12.31-2.83,11.35-1.35,25.63-1.97,37.34Z"></path><path class="cls-4" d="M89.45,179.99c2.01-2.86,4.51-5.55,7.75-6.87,3.25-1.31,7.36-.93,9.73,1.65,1.44,1.57,2.07,3.72,2.41,5.83,3.28,19.93-14.53,39.11-10.45,58.88,2.35,11.38,11.54,20.09,21.26,26.46,28.14,18.44,64.88,23.08,96.72,12.23,2.46-.84,5-1.78,7.58-1.52s5.22,2.17,5.33,4.77c.07,1.83-1.08,3.47-2.3,4.84-7.26,8.21-18.26,12.36-29.16,13.45-10.91,1.09-21.88-.59-32.7-2.35-11.16-1.82-22.42-3.78-32.8-8.27-19.96-8.64-34.64-26.32-42.76-46.16-7.7-18.83-13.16-45.1-.62-62.94Z"></path><path class="cls-5" d="M189.88,393.52c.19,14.82,5.12,29.13,10.49,42.94,2.75,7.08,5.9,14.47,11.94,19.07,7.71,5.87,18.23,5.87,27.91,5.62,7.68-.2,16.64-1.09,20.72-7.59,2.02-3.22,2.36-7.17,2.64-10.96,1.03-13.86,2.05-27.85,.09-41.61s-7.16-27.46-16.98-37.28c-27.86-27.84-57.24-4.07-56.82,29.81Z"></path><path class="cls-4" d="M222.16,159.59c-7.86,28.18-5.37,58.57,3.3,86.51,1.27,4.08,2.69,8.18,5.13,11.7,2.44,3.51,6.03,6.42,10.24,7.16,6.03,1.06,11.91-2.38,16.65-6.25,14.22-11.59,23.74-27.78,33.95-43.02,4.39-6.54,9-13.07,11.62-20.5,2.62-7.43,3.01-16.06-.92-22.89-3.02-5.24-8.2-8.85-13.43-11.9-7.89-4.61-16.27-8.38-24.96-11.22-7.17-2.34-16.64-3.72-24.25-3.99-9.7-.35-14.9,5.7-17.33,14.41Z"></path><path class="cls-6" d="M235.65,200.79c-.17-.54-.56-1.17-1.11-1.07-.43,.08-.63,.56-.75,.98-.47,1.54-3.5,10.36-.03,10.8,3.2,.4,2.41-9.08,1.89-10.71Z"></path><path class="cls-6" d="M262.84,210.99c.06-.51,.07-1.05-.13-1.52-1.41-3.33-5.18,4.79-4.48,7.13,1.24,4.12,4.42-4.06,4.61-5.6Z"></path><path class="cls-6" d="M288.6,138.42c4.43,5.34,8.59,10.99,11.46,17.32,2.86,6.32,4.39,13.4,3.37,20.27-1.31,8.84-6.69,16.94-6.53,25.87,.04,2.31,.62,4.86,2.53,6.16,1.54,1.05,3.56,1.01,5.42,.82,7.35-.78,14.54-3.46,20.36-8.02,5.82-4.55,10.22-11,11.94-18.19,1.98-8.24,.42-16.99-2.7-24.87-1.78-4.49-4.11-8.84-7.46-12.32-3.54-3.67-8.07-6.21-12.64-8.46-6.76-3.33-13.62-4.47-20.68-6.72-1.95-.62-4.61-1.86-6.37-.22-2.7,2.52-.49,6.19,1.31,8.36Z"></path><path class="cls-1" d="M267.12,136.97c.88,1.31,2.11,2.33,3.31,3.35,5.32,4.52,10.43,9.36,14.56,14.98,4.13,5.63,7.27,12.1,8.31,19,.71,4.74,.43,9.57-.18,14.33-.16,1.28-.35,2.58-.09,3.84,.26,1.26,1.08,2.49,2.32,2.85,2.1,.62,3.99-1.39,5.14-3.25,5.56-9.01,7.7-20.07,5.9-30.5-1.81-10.43-7.54-20.13-15.81-26.74-4.55-3.63-10-5.88-15.79-6.6-4.85-.6-11.18,3.48-7.66,8.74Z"></path><path class="cls-6" d="M271.22,200.07c-8.87,1.21-18.07,.85-26.54-2.05-17.06-5.85-29.36-21.49-35.41-38.49-3.08-8.66-4.77-18.24-2.01-27,1.46-4.66,4.33-9.08,8.66-11.34,4.7-2.46,10.35-2.06,15.57-1.09,14.46,2.68,27.89,9.13,41.14,15.52,5.9,2.85,11.91,5.77,16.65,10.29,5.89,5.63,9.41,13.47,10.54,21.53,1,7.08,.23,14.35-1.62,21.23-1.65,6.13-7.91,6.86-13.43,8.45-4.44,1.29-8.96,2.32-13.55,2.95Z"></path><path class="cls-6" d="M248.83,240.07c1.44-1.21,3.07-2.76,4.9-2.32,.95,.22,1.71,.98,2.11,1.86,.4,.89,.47,1.89,.38,2.86-.29,3.12-2.26,6.04-5.05,7.46-2.79,1.43-6.31,1.32-9.01-.27-1.2-.71-2.28-1.77-2.56-3.13-.54-2.64,1.42-2.71,3.16-3.1,2.18-.49,4.38-1.95,6.07-3.36Z"></path><path class="cls-1" d="M203.31,290.17c-7.92,6.81-14.25,16.08-15.35,26.47-1.18,11.1,3.62,21.88,8.58,31.87,4.55,9.16,10.7,19.22,20.78,20.92,6.41,1.08,13.02-1.73,17.81-6.13,4.78-4.4,7.99-10.24,10.68-16.16,7.57-16.66,11.67-34.88,11.97-53.17,.11-6.39-.56-13.5-5.27-17.83-13.27-12.21-39.12,5.36-49.21,14.03Z"></path><path class="cls-4" d="M247.59,288.36c-1.07-4.49-1.56-9.95,2.81-12.62,2.17-1.33,4.89-1.34,7.24-.36,5.01,2.09,7.44,6.89,9.69,11.47,5.4,11.01,10.81,22.03,16.21,33.04,4.9,9.99,11.41,21.3,24.34,19.73,3.48-.42,6.78-1.83,9.66-3.82,16.46-11.39,24.71-32.95,20.74-52.43-1.13-5.55-3.14-11.32-4-16.92-.5-3.23,4.18-4.25,5.03-1.1l3.46,12.78,27.7-37.32c1.27-1.71,3.12-2.97,5.23-3.29,6.08-.92,8.25,5.78,8.17,11.01-.28,18.89-12.23,35.34-23.67,50.38-6.63,8.71-13.25,17.43-19.88,26.14-5.93,7.8-12.01,15.74-20.07,21.32s-18.59,8.5-27.83,5.23c-11.35-4.02-20.82-17-27.71-26.41-7.94-10.83-14.02-23.79-17.13-36.83Z"></path><path class="cls-4" d="M211.22,289.56c-3.77,4.89-5.63,12.76-.85,16.67,4.17,3.41,10.5,1.37,14.95-1.68,5.6-3.85,21.69-19.32,13.15-26.2-7.45-6-23.06,5.8-27.24,11.22Z"></path><path class="cls-5" d="M296.53,403.32c-1.2,0-2.26-.87-2.46-2.09-3.08-18.71-.76-38.65,6.52-56.16,1.47-3.54,3.26-7.17,6.37-9.76,3.79-3.16,9.01-3.84,12.69-1.66,1.19,.7,1.58,2.24,.88,3.43-.7,1.19-2.24,1.58-3.43,.88-2.11-1.25-5.09-.35-6.94,1.2-2.29,1.91-3.73,4.9-4.96,7.85-6.93,16.66-9.13,35.63-6.21,53.43,.22,1.36-.7,2.65-2.06,2.87-.14,.02-.27,.03-.41,.03Z"></path><path class="cls-5" d="M324.39,391.14s-.06,0-.09,0c-1.38-.05-2.46-1.21-2.41-2.59,.51-14.39-.75-28.82-3.75-42.9-.29-1.35,.57-2.68,1.92-2.97,1.35-.28,2.68,.57,2.97,1.92,3.08,14.48,4.38,29.33,3.85,44.12-.05,1.35-1.16,2.41-2.5,2.41Z"></path><path class="cls-5" d="M291.5,401.66c-1.53,5.56-.47,11.53,1.43,16.98,1.86,5.37,4.87,10.81,10,13.26,6.71,3.2,15.11,.08,20.05-5.47s7.14-12.98,8.79-20.23c1.21-5.32,2.06-11.41-1.17-15.81-2.84-3.85-8.15-5.19-12.89-4.54-5.08,.71-10.31,3.27-15.13,4.82-5.47,1.76-9.48,5.25-11.06,10.99Z"></path><path class="cls-2" d="M308.74,416.7c-.73,0-1.47-.08-2.22-.25-5.33-1.21-8.63-6.5-10.91-10.97-.13-.25-.03-.55,.22-.67,.25-.12,.55-.03,.67,.22,2.18,4.27,5.31,9.33,10.24,10.45,5.16,1.17,10.11-2.46,12.53-6.33,2.74-4.4,3.54-9.86,4.25-14.68,.04-.27,.29-.47,.57-.42,.27,.04,.46,.29,.42,.57-.72,4.92-1.54,10.49-4.39,15.06-2.25,3.62-6.59,7.03-11.39,7.03Z"></path><path class="cls-5" d="M209.65,202.94c1.56,7.77,6.23,15.37,13.6,18.29s17.25-.52,19.51-8.12c1.87,7.21,4.42,15.1,12.81,17.14,4.51,1.1,9.23-.05,13.1-2.6,6.02-3.97,9.45-10.03,12.09-16.48,1.42-3.46-.78-7.33-4.49-7.85-10.83-1.52-21.62-3.31-32.06-6.53-9.84-3.03-18.5-7.42-26.54-13.23-3.05-2.21-7.32-.26-7.69,3.48-.52,5.25-1.4,10.56-.33,15.89Z"></path><path class="cls-5" d="M283.2,223.06c1.08,1.46,2.16,2.92,3.46,4.18,.7,.67,1.59,1.33,2.54,1.15,1.14-.21,1.75-1.57,1.57-2.71s-.93-2.1-1.66-3c-1.68-2.1-11.93-17.04-14.14-15.51-3.99,2.76,6.76,13.91,8.23,15.89Z"></path><path class="cls-2" d="M368.89,281.47s-.03,0-.04,0c-.27-.02-.48-.27-.46-.54,.64-7.46-2.14-15.08-7.43-20.38-.2-.2-.2-.51,0-.71,.2-.19,.51-.2,.71,0,5.5,5.51,8.38,13.42,7.72,21.18-.02,.26-.24,.46-.5,.46Z"></path><path class="cls-2" d="M91.05,204.91s-.02,0-.03,0c-.28-.02-.48-.26-.47-.53,.72-11.21,4.97-22.22,11.96-31.01,.17-.22,.49-.25,.7-.08,.22,.17,.25,.49,.08,.7-6.87,8.63-11.04,19.44-11.75,30.45-.02,.26-.24,.47-.5,.47Z"></path><path class="cls-2" d="M366.89,268.62c-.09,0-.19-.03-.27-.08-.23-.15-.3-.46-.15-.69,5.3-8.33,10-17.12,13.98-26.16-.04-.13-.03-.28,.05-.41l.49-.81c.14-.22,.43-.3,.66-.19,.23,.12,.33,.4,.23,.64-4.11,9.5-9.01,18.74-14.56,27.47-.1,.15-.26,.23-.42,.23Z"></path><path class="cls-2" d="M209.89,306.23c-.08,0-.16-.02-.24-.06-.24-.13-.33-.44-.2-.68,2.08-3.82,4.74-7.26,7.92-10.23,.2-.19,.52-.18,.71,.02,.19,.2,.18,.52-.02,.71-3.1,2.89-5.7,6.25-7.72,9.97-.09,.17-.26,.26-.44,.26Z"></path></g><g id="capture-line"><path class="cls-7" d="M140.4,149.92c-.06,2.17,.25,4.9,2.31,5.6,2.72,.93,4.64-2.67,5.2-5.48,3.12-15.81,3.68-32.12,1.63-48.1,12.03,3.26,25.3,4.31,36.62-.91,1.44-.67,3.04-1.73,3.05-3.32,.02-2.36-3.14-3.12-5.5-3.13-9.45-.04-35.95-5.27-41.55,4.36-3.04,5.23-.9,18.35-1.06,24.44-.23,8.85-.47,17.69-.69,26.54Z"></path><path class="cls-7" d="M357.24,149.92c.06,2.17-.25,4.9-2.31,5.6-2.72,.93-4.64-2.67-5.2-5.48-3.12-15.81-3.68-32.12-1.63-48.1-12.03,3.26-25.3,4.31-36.62-.91-1.44-.67-3.04-1.73-3.05-3.32-.02-2.36,3.14-3.12,5.5-3.13,9.45-.04,35.95-5.27,41.55,4.36,3.04,5.23,.9,18.35,1.06,24.44,.23,8.85,.47,17.69,.69,26.54Z"></path><path class="cls-7" d="M140.4,322.07c-.06-2.17,.25-4.9,2.31-5.6,2.72-.93,4.64,2.67,5.2,5.48,3.12,15.81,3.68,32.12,1.63,48.1,12.03-3.26,25.3-4.31,36.62,.91,1.44,.67,3.04,1.73,3.05,3.32,.02,2.36-3.14,3.12-5.5,3.13-9.45,.04-35.95,5.27-41.55-4.36-3.04-5.23-.9-18.35-1.06-24.44-.23-8.85-.47-17.69-.69-26.54Z"></path><path class="cls-7" d="M357.24,322.07c.06-2.17-.25-4.9-2.31-5.6-2.72-.93-4.64,2.67-5.2,5.48-3.12,15.81-3.68,32.12-1.63,48.1-12.03-3.26-25.3-4.31-36.62,.91-1.44,.67-3.04,1.73-3.05,3.32-.02,2.36,3.14,3.12,5.5,3.13,9.45,.04,35.95,5.27,41.55-4.36,3.04-5.23,.9-18.35,1.06-24.44,.23-8.85,.47-17.69,.69-26.54Z"></path></g><g id="likes"><path class="cls-1" d="M113.68,114.09c.69,1.94,1.18,4.55-.54,5.69-1.7,1.13-3.89-.28-5.42-1.62-3.33-2.92-6.67-5.84-10-8.76-8.94,1.06-18.23-1.14-25.75-6.1-4.54-2.99-8.62-7.29-9.58-12.64-1.21-6.72,2.83-13.44,8.14-17.74,11.75-9.5,30.38-9.08,41.69,.93,4.47,3.96,7.92,9.56,7.72,15.53-.21,6.51-4.8,10.36-10.42,12.33,.82,4.17,2.75,8.35,4.18,12.38Z"></path><g id="like"><path class="cls-3" d="M105.08,84.2c1.01,1.04,1.21,2.6,1.32,4.04,.17,2.14,.24,4.28,.22,6.43,0,1.07-.11,2.28-.94,2.95-.63,.5-1.49,.54-2.3,.56-1.86,.04-3.71,.08-5.57,.11-.63,.01-1.31,.01-1.82-.35-.57-.41-.77-1.15-.92-1.84-.44-2.04-.78-4.09-1.02-6.16-.18-1.55-.77-3.78,.54-4.99,1.19-1.09,3.6-1.34,5.1-1.66,1.78-.38,3.98-.52,5.37,.91Z"></path><path class="cls-7" d="M95.11,74.3c-.12-1.12-.3-2.34-1.14-3.08-.75-.65-1.84-.75-2.82-.61-2.49,.36-4.74,2.1-5.71,4.43-1.26,3.04-.35,6.5,.58,9.66-3.07-.65-6.35,1.1-7.94,3.8-1.6,2.7-1.65,6.13-.64,9.09,.81,2.38,2.47,4.68,4.89,5.37,2.04,.59,4.21-.06,6.24-.69,2.29-.72,4.61-1.38,6.88-2.17,1.75-.61,2.67-1.38,2.46-3.32-.23-2.08-.78-4.13-1.01-6.23-.28-2.53-.56-5.06-.83-7.59-.32-2.89-.63-5.77-.95-8.66Z"></path><path class="cls-2" d="M87.14,100.7c-.06,0-.12,0-.19,0-.28-.02-.48-.27-.45-.54,.02-.28,.27-.48,.54-.45,.79,.07,1.54-.73,1.64-1.5,.11-.81-.26-1.73-.99-2.48-.71-.71-1.64-1.21-2.55-1.69-.22-.11-.32-.37-.24-.6,.08-.23,.31-.37,.55-.34,.89,.14,1.8,.28,2.68,.17,.91-.12,1.66-.52,2.06-1.11,.72-1.05,.26-2.57-.54-3.47-.93-1.04-2.34-1.64-3.58-2.17-.25-.11-.37-.4-.26-.66,.11-.25,.4-.37,.66-.27,1.34,.57,2.86,1.21,3.94,2.42,1.08,1.21,1.63,3.21,.62,4.7-.56,.83-1.57,1.39-2.76,1.54-.23,.03-.46,.04-.7,.05,.29,.21,.57,.45,.84,.71,.95,.96,1.42,2.2,1.27,3.31-.18,1.33-1.32,2.37-2.53,2.37Z"></path></g></g><g id="loves"><path class="cls-7" d="M146.64,234.83c-.69,1.94-1.18,4.55,.54,5.69,1.7,1.13,3.89-.28,5.42-1.62,3.33-2.92,6.67-5.84,10-8.76,8.94,1.06,18.23-1.14,25.75-6.1,4.54-2.99,8.62-7.29,9.58-12.64,1.21-6.72-2.83-13.44-8.14-17.74-11.75-9.5-30.38-9.08-41.69,.93-4.47,3.96-7.92,9.56-7.72,15.53,.21,6.51,4.8,10.36,10.42,12.33-.82,4.17-2.75,8.35-4.18,12.38Z"></path><g id="love"><path class="cls-3" d="M184.02,208.25c1.16-3.43,.83-7.99-2.38-9.66-2.15-1.12-4.88-.46-6.82,.99-1.94,1.45-3.26,3.56-4.54,5.63-.79-3.88-3.28-7.63-7.04-8.86-3.76-1.22-8.59,.99-9.24,4.89-.39,2.31,.64,4.61,1.79,6.65,2.46,4.39,8.62,14.68,14.32,14.97,5.75,.29,12.33-9.91,13.91-14.61Z"></path></g></g><g id="camera"><path class="cls-6" d="M376.67,166.47c-5.06,4.18-7.86,10.42-10.49,16.44-1.98,4.54-4,9.38-3.28,14.28,.86,5.9,5.49,10.49,10.24,14.08,10.86,8.21,23.79,13.65,37.26,15.68,4.37,.66,9.1,.9,12.93-1.3,3.79-2.18,5.96-6.3,7.92-10.2,2.47-4.91,4.97-9.89,6.06-15.28,1.09-5.39,.61-11.32-2.5-15.86-2.05-2.99-5.27-5.54-5.54-9.16-.13-1.72,.46-3.45,.24-5.16-.39-3.02-3.11-5.12-5.61-6.87-4.95-3.45-10.23-7.03-16.25-7.41-5.9-.37-11.33,3.26-12.8,8.98-3.04-.44-5.4-2.29-8.85-2.03-3.37,.26-6.71,1.67-9.31,3.82Z"></path><path class="cls-4" d="M387.75,188.33c-2.14,5.32-.75,11.71,2.92,16.12,2.19,2.62,5.31,4.67,8.72,4.77,4.29,.13,8.16-2.8,10.62-6.32,2.86-4.08,4.35-9.33,3.07-14.15-3.26-12.28-20.96-11.32-25.34-.42Z"></path><path class="cls-3" d="M391.25,170.02c-1.94-.67-4.31,.45-5.02,2.37s.34,4.32,2.23,5.08c1.9,.77,4.32-.22,5.14-2.1s-.11-4.33-1.96-5.19"></path><path class="cls-3" d="M422.3,179.33c.61-2.61-1.77-4.91-4.01-6.39-4.05-2.69-14.55-9.35-19.45-7.39,1.71,3.14,7.49,4.38,10.53,5.93,1.37,.7,13.22,6.59,12.92,7.85Z"></path><path class="cls-2" d="M417.77,222.05c-.12,0-.25-.05-.34-.14-.2-.19-.21-.51-.02-.71,9.77-10.33,12.49-26.58,6.62-39.52-.11-.25,0-.55,.25-.66,.25-.11,.55,0,.66,.25,6.04,13.31,3.24,30.01-6.8,40.62-.1,.1-.23,.16-.36,.16Z"></path></g><g id="blinks"><path class="cls-1" d="M96.85,379.87c-.5,0-1.01-.14-1.49-.4-.88-.49-1.55-1.36-1.8-2.33-.41-1.57,.11-3.14,.6-4.34,.61-1.48,1.38-2.89,2.29-4.21-.97-2.05-2.35-3.91-4.04-5.4-1.56-1.37-3.4-2.43-5.37-3.13-.62,1.64-1.44,3.2-2.47,4.63-1.71,2.4-3.62,3.92-5.69,4.53-2.81,.82-5.83-.28-7.04-2.57-1.12-2.12-.53-5.01,1.4-6.89,1.48-1.43,3.59-2.3,6.28-2.59,2.07-.22,4.19-.06,6.22,.42,1.98-7.09,.12-15.3-5.2-20.47-.4-.38-.41-1.02-.02-1.41,.38-.4,1.02-.41,1.41-.02,5.84,5.68,7.88,14.69,5.72,22.47,2.23,.78,4.3,1.98,6.07,3.52,1.64,1.44,3.02,3.19,4.06,5.12,2.67-3.23,6.17-5.8,10.05-7.37-.16-.46-.29-.91-.39-1.33-1.19-4.7-1.09-9.75,.26-14.41-5.56,.79-11.59-2.41-13.8-7.63-.22-.51,.02-1.1,.53-1.31,.51-.21,1.09,.02,1.31,.53,2.07,4.88,8.09,7.67,13.15,6.1,.36-.11,.76-.01,1.02,.26,.26,.27,.35,.67,.22,1.03-1.72,4.74-1.99,10.04-.75,14.93,.09,.37,.2,.76,.33,1.15,1.49-.47,3.02-.79,4.57-.94,.19-.02,.39,.02,.56,.11,.85,.44,1.39,1.33,1.43,2.39,.05,1.19-.52,2.34-1.46,2.93-1.74,1.09-3.93,.41-5.2-.82-.37-.36-.68-.76-.94-1.18-3.91,1.56-7.41,4.23-9.95,7.58,.81,2.02,1.27,4.18,1.33,6.34,.06,2.39-.84,4.1-2.41,4.58-.26,.08-.53,.12-.8,.12Zm.5-8.97c-.51,.86-.95,1.75-1.33,2.66-.38,.91-.77,2.08-.52,3.07,.11,.44,.45,.87,.84,1.09,.18,.1,.45,.2,.73,.12,.78-.24,1.02-1.56,1-2.62-.04-1.46-.29-2.92-.71-4.33Zm-15.95-11.82c-.55,0-1.11,.03-1.66,.09-2.24,.23-3.95,.92-5.1,2.03-1.29,1.25-1.73,3.19-1.03,4.52,.85,1.6,3.06,2.06,4.71,1.58,1.63-.48,3.18-1.74,4.62-3.77,.89-1.25,1.62-2.61,2.17-4.03-1.22-.28-2.47-.42-3.72-.42Zm29.25,1.49c.12,.15,.24,.29,.37,.42,.7,.68,1.92,1.08,2.74,.56,.33-.21,.55-.68,.53-1.15,0-.12-.03-.37-.17-.55-1.17,.14-2.33,.38-3.47,.72Z"></path><path class="cls-1" d="M413.57,375.09c-.43,0-.82-.28-.95-.71-.81-2.63-1.16-5.36-1.08-8.07-.93-2.16-2.37-4.1-4.2-5.53-3.87-3.02-9.51-3.77-14.04-1.88-.42,.18-.91,.05-1.18-.32s-.27-.87,.01-1.23c4.05-5.11,6.98-11.16,8.49-17.51,.47-1.99,.92-4.48,.54-6.9-1.61,1.47-3.36,2.37-5.11,2.62-2.54,.37-5.74-.91-6.67-3.67-.51-1.52-.2-3.21,.86-4.64,1.22-1.65,3.16-2.66,5.07-2.59,2.64,.07,5.17,1.8,6.62,4.38,3.77-5.38,4.22-12.98,.95-18.71-.27-.48-.11-1.09,.37-1.36,.48-.27,1.09-.11,1.36,.37,3.85,6.74,3.07,15.82-1.8,21.85,.92,3.22,.36,6.56-.25,9.13-1.33,5.64-3.75,11.06-7.05,15.84,4.52-.89,9.39,.19,13.06,3.05,1.29,1,2.4,2.21,3.31,3.54,1.1-6.73,4.74-13.06,10.23-17.18-.19-.38-.36-.79-.53-1.23-2.24-5.81-2.74-12.37-1.4-18.46,.12-.54,.66-.88,1.19-.76,.54,.12,.88,.65,.76,1.19-1.25,5.71-.79,11.86,1.32,17.31,.11,.28,.22,.55,.34,.8,.12-.08,.24-.15,.36-.22,2.17-1.31,5.12-1.77,6.45,.33,.65,1.02,.56,2.26-.23,3.33-.84,1.14-2.57,2.06-4.23,1.6-1.15-.32-2.13-1.03-2.98-2.16-5.66,4.37-9.19,11.5-9.55,18.68,1.03,2.6,1.39,5.46,.97,8.26-.07,.46-.45,.81-.91,.85-.03,0-.05,0-.08,0Zm11.21-28.94c.56,.73,1.18,1.19,1.87,1.38,.76,.21,1.66-.27,2.09-.86,.2-.27,.39-.68,.15-1.07-.61-.96-2.55-.4-3.72,.31-.13,.08-.26,.16-.39,.24Zm-29.62-19.49c-1.22,0-2.52,.69-3.32,1.78-.67,.9-.88,1.93-.58,2.82,.59,1.75,2.79,2.58,4.5,2.33,1.97-.28,3.64-1.63,4.77-2.84-.92-2.08-2.89-4.03-5.29-4.09-.03,0-.06,0-.09,0Z"></path><path class="cls-1" d="M219.87,87.06c-.15,0-.31-.04-.46-.11-.43-.22-.64-.72-.5-1.19,1.52-4.89,2.98-11.21,.79-16.76-1.14-2.88-3.65-5.38-6.56-6.52-1.55-.61-3.91-1.09-6.29,.06-.44,.21-.98,.07-1.26-.33-.28-.4-.23-.95,.13-1.29l9.62-9.23c.4-.38,1.03-.37,1.41,.03,.38,.4,.37,1.03-.03,1.41l-7,6.72c1.34-.03,2.76,.22,4.14,.76,3.41,1.33,6.36,4.26,7.69,7.65,1.71,4.33,1.44,8.98,.57,13.17,3.91-5.04,8.14-9.95,13.49-13.65,.6-.42,1.19-.79,1.77-1.11-1.11-4-1.3-8.28-.59-12.38-3.09,.25-6.28-.45-8.92-2.11-4.47-2.81-7.17-8.23-6.71-13.5,.05-.55,.54-.96,1.08-.91,.55,.05,.96,.53,.91,1.08-.4,4.53,1.93,9.21,5.78,11.63,2.44,1.53,5.43,2.12,8.29,1.75,.46-1.82,1.09-3.58,1.91-5.26,1.32-2.7,2.9-3.24,3.98-3.23,.92,.01,1.77,.45,2.4,1.24,.73,.93,1.04,2.2,.79,3.32-.34,1.56-1.47,2.93-3.36,4.05-1.26,.75-2.64,1.28-4.06,1.61-.78,3.9-.68,7.98,.33,11.82,2.17-.88,4.17-1.04,5.96-.49,1.98,.61,3.62,2.56,3.99,4.75,.3,1.75-.27,3.3-1.56,4.25-1.89,1.39-4.53,.88-6.16-.34-1.74-1.3-2.65-3.26-3.25-4.82-.07-.17-.13-.34-.19-.52-.41,.24-.83,.51-1.26,.81-6.51,4.51-11.38,10.98-16.09,17.24-.19,.26-.49,.4-.8,.4Zm19.95-19.36c.08,.24,.17,.48,.26,.71,.75,1.95,1.55,3.16,2.59,3.94,1.01,.76,2.68,1.13,3.78,.33,.9-.66,.87-1.72,.77-2.3-.25-1.45-1.34-2.79-2.6-3.18-1.39-.43-2.99-.26-4.79,.5Zm3.28-21.96c-.97,0-1.75,1.32-2.14,2.11-.61,1.25-1.11,2.56-1.51,3.9,.87-.27,1.71-.65,2.49-1.11,.96-.57,2.16-1.51,2.43-2.76,.12-.54-.05-1.2-.41-1.65-.17-.22-.46-.48-.86-.48h-.02Z"></path></g><g id="clap"><path class="cls-3" d="M397.57,103.39c1.74-.43,3.57-.94,5.15-2.02,1.58-1.09,2.81-2.94,2.32-4.16-.69-1.71-3.79-1.08-6.22-.28-3.48,1.14-22.94,6.16-22.53,9.04,.46,3.25,17.89-1.72,21.28-2.58Z"></path><path class="cls-3" d="M378.58,66.87c1.08-1.54,2.19-3.1,3.59-4.48,1.4-1.39,3.15-2.59,4.61-2.84,2.47-.42,3.05,2.08,1.87,4.68-1.18,2.6-3.56,5.16-5.89,7.51-4.74,4.79-10.36,10.51-15.81,14.19-1.78-2.7,8.85-15.12,11.62-19.05Z"></path><path class="cls-3" d="M352.1,39.97c2.73-1.99,4.75-1.32,5,.66,.25,1.98-.82,4.9-1.86,7.71-1.53,4.11-7.7,25.15-11.61,19.05-2.41-3.77,4.94-20.15,8.47-27.42Z"></path></g></svg>