<svg version="1.1" id="Layer_1" xmlns="http://www.w3.org/2000/svg" xmlns:xlink="http://www.w3.org/1999/xlink" x="0px" y="0px" viewBox="0 0 500 500" style="width: 151px;" xml:space="preserve" data-imageid="virtual-meeting-78" imageName="Virtual Meeting" class="illustrations_image">
<style type="text/css">
	.st0_virtual-meeting-78{fill:#68E1FD;}
	.st1_virtual-meeting-78{fill:#093F68;}
	.st2_virtual-meeting-78{fill:#FFFFFF;}
	.st3_virtual-meeting-78{fill:#725858;}
	.st4_virtual-meeting-78{fill:#FFC9B0;}
	.st5_virtual-meeting-78{fill:#FFBC0E;}
	.st6_virtual-meeting-78{fill:#DFEAEF;}
	.st7_virtual-meeting-78{fill:#F56132;}
	.st8_virtual-meeting-78{fill:#70CC40;}
</style>
<g id="device_virtual-meeting-78">
	<path class="st0_virtual-meeting-78 targetColor" d="M453.9,85.7v252.3c0,12.2-9.8,22-22,22H68.1c-12.2,0-22-9.8-22-22V85.7c0-12.2,9.8-22,22-22h363.9&#10;&#9;&#9;C444.1,63.8,453.9,73.6,453.9,85.7z" style="fill: rgb(187, 104, 253);"/>
	<path class="st1_virtual-meeting-78" d="M431.9,362.1H68.1c-6.6,0-13-2.8-17.5-7.6c-4.2-4.4-6.6-10.3-6.5-16.5V85.7c0-13.2,10.8-24,24-24h363.9&#10;&#9;&#9;c13.3,0,24,10.7,24,24v252.4C456,351.4,445.2,362.1,431.9,362.1z M68.1,65.8c-11,0-19.9,8.9-19.9,19.9v252.4&#10;&#9;&#9;c0,5.1,1.9,9.9,5.4,13.6c3.8,4,9,6.3,14.5,6.3h363.9c11,0,19.9-8.9,19.9-19.9V85.7c0-11-8.9-19.9-19.9-19.9H68.1z"/>
	<polygon class="st1_virtual-meeting-78" points="327.6,425.4 172.4,425.4 188.8,360.1 311.2,360.1 &#9;"/>
	<path class="st1_virtual-meeting-78" d="M327.6,427.5H172.4c-1.1,0-2.1-0.9-2.1-2.1c0-0.2,0-0.3,0.1-0.5l16.4-65.4c0.2-0.9,1.1-1.6,2-1.6h122.4&#10;&#9;&#9;c0.9,0,1.8,0.6,2,1.6l16.4,65.4c0.3,1.1-0.4,2.2-1.5,2.5C327.9,427.5,327.8,427.5,327.6,427.5z M175.1,423.4h149.9l-15.4-61.2&#10;&#9;&#9;H190.4L175.1,423.4z"/>
	<circle class="st1_virtual-meeting-78" cx="250" cy="335.3" r="9.5"/>
	<path class="st1_virtual-meeting-78" d="M250,346.9c-6.4,0-11.6-5.2-11.6-11.6c0-6.4,5.2-11.6,11.6-11.6s11.6,5.2,11.6,11.6c0,0,0,0,0,0&#10;&#9;&#9;C261.6,341.7,256.4,346.9,250,346.9z M250,327.8c-4.1,0-7.5,3.3-7.5,7.5c0,4.1,3.3,7.5,7.5,7.5s7.5-3.3,7.5-7.5&#10;&#9;&#9;C257.5,331.2,254.1,327.8,250,327.8L250,327.8z"/>
	<path class="st0_virtual-meeting-78 targetColor" d="M140.6,408h218.7c2.9,0,5.3,2.4,5.3,5.3v17.6c0,2.9-2.4,5.3-5.3,5.3H140.6c-2.9,0-5.3-2.4-5.3-5.3v-17.6&#10;&#9;&#9;C135.4,410.4,137.7,408,140.6,408z" style="fill: rgb(187, 104, 253);"/>
	<path class="st1_virtual-meeting-78" d="M353.7,438.3H146.3c-7.2,0-13-5.8-13-13l0,0v-6.4c0-7.2,5.8-13,13-13l0,0h207.5c7.2,0,13,5.8,13,13l0,0v6.4&#10;&#9;&#9;C366.7,432.5,360.9,438.3,353.7,438.3L353.7,438.3z M146.3,410.1c-4.9,0-8.9,4-8.9,8.9v6.4c0,4.9,4,8.9,8.9,8.9h207.5&#10;&#9;&#9;c4.9,0,8.9-4,8.9-8.9v-6.4c0-4.9-4-8.9-8.9-8.9H146.3z"/>
	<path class="st2_virtual-meeting-78" d="M453.9,85.7v224.8H46.1V85.7c0-12.2,9.8-22,22-22h363.8C444.1,63.8,453.9,73.6,453.9,85.7z"/>
	<path class="st1_virtual-meeting-78" d="M453.9,312.6H46.1c-1.1,0-2.1-0.9-2.1-2c0,0,0,0,0,0V85.7c0-13.2,10.8-24,24-24h363.9c13.3,0,24,10.7,24,24&#10;&#9;&#9;v224.8C456,311.7,455,312.6,453.9,312.6z M48.2,308.5h403.7V85.7c0-11-8.9-19.9-19.9-19.9H68.1c-11,0-19.9,8.9-19.9,19.9V308.5z"/>
	<path class="st1_virtual-meeting-78" d="M450.2,202.6H46.1c-1.1,0.1-2.1-0.8-2.2-1.9s0.8-2.1,1.9-2.2c0.1,0,0.2,0,0.3,0h404.1c1.1,0.1,2,1.1,1.9,2.2&#10;&#9;&#9;C452,201.7,451.2,202.5,450.2,202.6z"/>
	<path class="st1_virtual-meeting-78" d="M250,312.6c-1.1,0-2.1-0.9-2.1-2.1V63.8c0-1.1,0.9-2.1,2.1-2.1c1.1,0,2.1,0.9,2.1,2.1v246.8&#10;&#9;&#9;C252.1,311.7,251.1,312.6,250,312.6z"/>
</g>
<g id="screen-1_virtual-meeting-78">
	<path class="st3_virtual-meeting-78" d="M132.5,80.5c0,0-7-2.3-13.6,5.8c-6.2,7.6-5.8,18.5-6.2,27.6c-0.3,9.7-2.2,17.7-5.3,26.8&#10;&#9;&#9;c-2.8,8.3,1.2,17.3,8.2,22.2s16,6.4,24.7,6.3c7.6-0.1,15.3-1.2,22.1-4.4c6.7-3.1,11.5-8.3,15.8-14.2c4.6-6.3,0.8-13,1-20.2&#10;&#9;&#9;c0.5-12.4,0.3-29.8-6.1-41C164.8,74.6,142.3,67.9,132.5,80.5z"/>
	<path class="st1_virtual-meeting-78" d="M139.4,171.3c-10.6,0-18.7-2.2-24.9-6.7c-8.1-5.9-11.8-16-8.9-24.6c3.4-10,4.8-17.6,5.2-26.2l0.1-2.6&#10;&#9;&#9;c0.2-8.8,0.5-18.8,6.5-26.2c5.6-6.9,11.6-7.1,14.3-6.8c4.1-4.6,10.1-6.9,17.1-6.4c10.9,1,20.6,7.1,26.2,16.5&#10;&#9;&#9;c6.7,11.8,6.9,29.7,6.4,42.1c0,2.2,0.2,4.5,0.6,6.6c0.8,4.8,1.5,9.8-2,14.7s-8.8,11.2-16.6,14.8c-6.4,3-13.9,4.5-23,4.6&#10;&#9;&#9;L139.4,171.3z M130.1,82.3c-2.1,0-5.8,0.8-9.5,5.3c-5.1,6.3-5.4,15.6-5.6,23.7l-0.1,2.6c-0.3,9-1.9,17-5.4,27.4&#10;&#9;&#9;c-2.3,6.9,0.7,15.1,7.4,19.9c5.7,4.1,13.3,6,23.4,5.9c8.5-0.1,15.4-1.5,21.3-4.2c5.4-2.5,9.9-6.6,15-13.5c2.5-3.5,2-7.2,1.3-11.6&#10;&#9;&#9;c-0.5-2.4-0.7-4.9-0.7-7.4c0.4-11.9,0.3-29.1-5.9-39.9c-4.5-7.9-13.9-13.8-22.9-14.4c-6.1-0.4-11.1,1.6-14.4,5.8&#10;&#9;&#9;c-0.5,0.7-1.4,1-2.3,0.7C131.3,82.3,130.7,82.3,130.1,82.3L130.1,82.3z"/>
	<path class="st4_virtual-meeting-78" d="M185.3,170.3c3.6,1.7,7.2,3.6,10.7,5.5l6.8-14.1c0.4-0.9,4-10.8,3.8-15.9c-0.3-7.5-8.1-5.7-8.9-5.7&#10;&#9;&#9;c-2,0.1-5.2,7.6-5.3,11.1c-0.9-1.8-1.5-3.7-2-5.7c-0.7-2.5-4.2-2.6-3.5,3c0.6,4.1,1.6,8.2,3,12.2c0,0-1.4,3-2.1,4.4L185.3,170.3z"/>
	<path class="st1_virtual-meeting-78" d="M196,177.9c-0.3,0-0.7-0.1-1-0.2l-0.6-0.3c-3.2-1.8-6.6-3.6-10-5.1c-1-0.5-1.5-1.7-1-2.7c0,0,0,0,0,0l4.3-8.9&#10;&#9;&#9;c-1.3-3.8-2.3-7.8-2.8-11.8c-0.5-4.5,1.3-6.5,3.1-6.9c1.8-0.3,3.5,0.7,4.2,2.4c1.3-3.2,3.2-6.1,5.4-6.2h0.2&#10;&#9;&#9;c1.4-0.2,5.5-0.7,8.3,1.7c1.7,1.5,2.7,3.7,2.6,6c0.2,5.8-3.7,16.2-4,16.9l0,0l-2.7,5.7l-4,8.4C197.6,177.4,196.8,177.8,196,177.9&#10;&#9;&#9;L196,177.9z M188,169.3c2.4,1.2,4.7,2.4,7,3.7l3.1-6.5c1.9-3.9,2.5-5.2,2.8-5.7l0,0c0.5-1,3.8-10.4,3.6-15c0.1-1.1-0.4-2.2-1.2-3&#10;&#9;&#9;c-1.5-1.2-4.2-0.9-5.1-0.7h-0.2c-1.2,0.9-3.6,6.2-3.6,9.1c0,1.1-0.9,2.1-2.1,2c-0.7,0-1.4-0.4-1.8-1c-0.7-1.4-1.3-2.9-1.7-4.5&#10;&#9;&#9;c0,0.2,0,0.3,0,0.5c0.6,4,1.6,7.9,2.9,11.7c0.2,0.5,0.1,1.1-0.1,1.6L188,169.3z M197.8,142.1L197.8,142.1z"/>
	<path class="st1_virtual-meeting-78" d="M198,157.3c-1,0-1.9-0.8-2-1.8c0-0.8-0.4-1.5-0.9-2c-0.7-0.4-1.4-0.5-2.2-0.4c-1.1,0.2-2.2-0.5-2.4-1.6&#10;&#9;&#9;c-0.2-1.1,0.5-2.2,1.6-2.4l0,0c1.9-0.3,3.8,0.1,5.4,1.1c1.5,1.2,2.4,2.9,2.5,4.8c0.1,1.1-0.6,2.2-1.8,2.3c0,0,0,0,0,0H198z"/>
	<path class="st5_virtual-meeting-78" d="M186.2,164.3c0,0-3.8,9.9-5.5,13.4c-4.4-4.5-12.6-16.3-16.1-19.1s-11.7-4.6-14.1-4.6h-15.9&#10;&#9;&#9;c-9.2,0-16.7,8.1-16.7,18.2v28.2h49.3v-14c6.1,6.6,10.6,10.1,15,10.1c1.2,0,2.4-0.3,3.5-0.7c2.1-0.9,6.9-2.9,14.5-23.8L186.2,164.3&#10;&#9;&#9;z"/>
	<path class="st1_virtual-meeting-78" d="M167.2,202.6h-49.4c-1.1,0-2.1-0.9-2.1-2.1v-28.2c0-11.2,8.4-20.3,18.8-20.3h15.9c2.8,0,11.4,1.9,15.4,5&#10;&#9;&#9;c2.2,1.7,5.5,6,9.1,10.5c1.8,2.2,3.6,4.6,5.1,6.4c1.8-4.2,4.1-10.3,4.1-10.4c0.4-1.1,1.6-1.6,2.7-1.2c0.1,0,0.2,0.1,0.3,0.1&#10;&#9;&#9;l14.1,7.7c0.9,0.5,1.3,1.5,1,2.5c-7.9,21.8-13.2,24-15.7,25c-1.4,0.6-2.8,0.9-4.3,0.9c-4.4,0-8.5-2.7-13-7.1v9&#10;&#9;&#9;C169.3,201.7,168.4,202.6,167.2,202.6C167.2,202.6,167.2,202.6,167.2,202.6z M120,198.5h45.2v-12c0-1.1,0.9-2.1,2.1-2.1&#10;&#9;&#9;c0.6,0,1.1,0.2,1.5,0.7c6.2,6.7,10.1,9.4,13.5,9.4c0.9,0,1.9-0.2,2.7-0.6c1.6-0.7,5.8-2.4,12.8-21l-10.4-5.7&#10;&#9;&#9;c-1.2,3.1-3.4,8.8-4.7,11.4c-0.5,1-1.7,1.5-2.7,1c-0.2-0.1-0.4-0.3-0.6-0.4c-2-2.1-4.7-5.4-7.5-9c-3.1-4-6.6-8.5-8.4-9.8&#10;&#9;&#9;c-3-2.3-10.6-4.1-12.8-4.1h-16c-8.1,0-14.6,7.2-14.6,16.1L120,198.5z"/>
	<path class="st4_virtual-meeting-78" d="M141.2,150.6h9.1l0,0v7.3c0,1-0.8,1.9-1.9,1.9c0,0,0,0,0,0h-5.4c-1,0-1.9-0.8-1.9-1.9c0,0,0,0,0,0L141.2,150.6&#10;&#9;&#9;L141.2,150.6z"/>
	<path class="st1_virtual-meeting-78" d="M146.5,161.8h-1.4c-3.3,0-6-2.7-5.9-6v-5.3c0-1.1,0.9-2.1,2.1-2.1h9.1c1.1,0,2.1,0.9,2.1,2.1v5.3&#10;&#9;&#9;C152.4,159.1,149.8,161.8,146.5,161.8z M143.3,152.7v3.2c0,1,0.8,1.8,1.8,1.8h0h1.4c1,0,1.8-0.8,1.8-1.8v-3.2H143.3z"/>
	<ellipse class="st4_virtual-meeting-78" cx="119.6" cy="126.8" rx="8.9" ry="7.7"/>
	<path class="st1_virtual-meeting-78" d="M119.6,136.6c-6,0-11-4.4-11-9.7s4.9-9.7,11-9.7s11,4.4,11,9.7S125.7,136.6,119.6,136.6z M119.6,121.3&#10;&#9;&#9;c-3.8,0-6.8,2.5-6.8,5.6s3.1,5.6,6.8,5.6s6.8-2.5,6.8-5.6S123.4,121.2,119.6,121.3z"/>
	<ellipse class="st4_virtual-meeting-78" cx="171.5" cy="126.8" rx="8.9" ry="7.7"/>
	<path class="st1_virtual-meeting-78" d="M171.5,136.6c-6,0-11-4.4-11-9.7s4.9-9.7,11-9.7s10.9,4.4,10.9,9.7S177.5,136.6,171.5,136.6z M171.5,121.3&#10;&#9;&#9;c-3.8,0-6.8,2.5-6.8,5.6s3.1,5.6,6.8,5.6s6.8-2.5,6.8-5.6S175.2,121.2,171.5,121.3z"/>
	<path class="st4_virtual-meeting-78" d="M162.1,104.1L153.4,93c0,0-1.9,6.9-3.1,11.1h-13.7l-3.2-10l-3.8,9.9L119,104v21c0,14.8,12,26.8,26.8,26.8&#10;&#9;&#9;c0,0,0,0,0,0l0,0c14.8,0,26.8-12,26.8-26.8v0v-20.8L162.1,104.1z"/>
	<path class="st1_virtual-meeting-78" d="M145.8,153.9c-15.9,0-28.9-12.9-28.9-28.9v-21c0-0.5,0.2-1.1,0.6-1.5c0.4-0.4,0.9-0.6,1.5-0.6l0,0h9.2l3.3-8.6&#10;&#9;&#9;c0.4-1.1,1.6-1.6,2.7-1.2c0.6,0.2,1,0.7,1.2,1.3l2.8,8.6h10.6c1.2-4.2,2.7-9.6,2.7-9.6c0.3-1.1,1.5-1.7,2.6-1.4&#10;&#9;&#9;c0.4,0.1,0.8,0.4,1.1,0.7l8,10.4h9.5c1.1,0,2.1,0.9,2.1,2.1V125C174.6,140.9,161.7,153.8,145.8,153.9z M121,106.1V125&#10;&#9;&#9;c0.3,13.7,11.6,24.5,25.2,24.2c13.3-0.3,24-11,24.2-24.2v-18.8H162c-0.6,0-1.2-0.3-1.6-0.8l-6.2-7.9c-0.6,2.3-1.4,5.1-2,7.2&#10;&#9;&#9;c-0.3,0.9-1.1,1.5-2,1.5l0,0h-13.7c-0.9,0-1.7-0.6-2-1.4l-1.4-4.4l-1.7,4.5c-0.3,0.8-1.1,1.3-1.9,1.3l0,0L121,106.1z"/>
	<path class="st1_virtual-meeting-78" d="M145.6,131.5c-0.9,0-1.8-0.1-2.6-0.2c-1.1-0.2-1.9-1.3-1.7-2.4c0.2-1.1,1.3-1.9,2.4-1.7c0.7,0.1,1.3,0.2,2,0.2&#10;&#9;&#9;c-0.5-1.4-1-2.8-1.7-4.1c-0.5-1-0.1-2.3,0.9-2.8s2.3-0.1,2.8,0.9c2.1,4,2.8,6.9,2.1,8.4c-0.3,0.7-1,1.3-1.8,1.5&#10;&#9;&#9;C147.2,131.4,146.4,131.5,145.6,131.5z"/>
	<path class="st1_virtual-meeting-78" d="M147.4,141.9c-5.7,0-11.6-2.9-12.5-3.4c-1-0.6-1.3-1.9-0.7-2.8c0.5-0.9,1.7-1.3,2.6-0.8&#10;&#9;&#9;c3,1.6,11.5,4.8,15.2,1.5c0.9-0.8,2.2-0.7,2.9,0.2s0.7,2.2-0.2,2.9C152.7,141.1,150.1,142,147.4,141.9z"/>
	<path class="st1_virtual-meeting-78" d="M167.2,188.6c-1.1,0-2.1-0.9-2.1-2.1v-13.1c-0.1-1.1,0.8-2.1,1.9-2.2s2.1,0.8,2.2,1.9c0,0.1,0,0.2,0,0.3v13.1&#10;&#9;&#9;C169.3,187.6,168.4,188.6,167.2,188.6z"/>
	<path class="st1_virtual-meeting-78" d="M127.9,201.9c-1.1,0-2.1-0.9-2.1-2.1v-27.7c0-1.1,0.9-2.1,2.1-2.1c1.1,0,2.1,0.9,2.1,2.1c0,0,0,0,0,0v27.7&#10;&#9;&#9;C130,201,129,201.9,127.9,201.9L127.9,201.9z"/>
	<path class="st6_virtual-meeting-78" d="M85.7,188.6H60.5c-1.1-0.1-2-1.1-1.9-2.2c0.1-1,0.9-1.8,1.9-1.9h25.2c1.1,0.1,2,1.1,1.9,2.2&#10;&#9;&#9;C87.5,187.7,86.7,188.5,85.7,188.6z"/>
</g>
<g id="screen-3_virtual-meeting-78">
	<path class="st6_virtual-meeting-78" d="M85.7,297.1H60.5c-1.1-0.1-2-1.1-1.9-2.2c0.1-1,0.9-1.8,1.9-1.9h25.2c1.1,0.1,2,1.1,1.9,2.2&#10;&#9;&#9;C87.5,296.2,86.7,297,85.7,297.1z"/>
	<path class="st7_virtual-meeting-78" d="M180.1,310.6v-24.1c0-4.4-4.4-7.9-9.9-7.9h-46.6c-5.5,0-9.9,3.5-9.9,7.9v24.1H180.1z"/>
	<path class="st1_virtual-meeting-78" d="M180.1,312.6h-66.4c-1.1,0-2.1-0.9-2.1-2.1v-24.1c0-5.5,5.4-9.9,11.9-9.9h46.6c6.6,0,12,4.5,12,9.9v24.1&#10;&#9;&#9;C182.3,311.7,181.3,312.6,180.1,312.6C180.2,312.6,180.2,312.6,180.1,312.6z M115.8,308.5h62.3v-22c0-3.2-3.5-5.8-7.8-5.8h-46.6&#10;&#9;&#9;c-4.3,0-7.8,2.6-7.8,5.8V308.5z"/>
	<rect x="138.3" y="279.5" class="st2_virtual-meeting-78" width="16.6" height="31.1"/>
	<path class="st1_virtual-meeting-78" d="M154.8,312.6h-16.6c-1.1,0-2.1-0.9-2.1-2.1v-31.1c0-1.1,0.9-2.1,2.1-2.1h16.6c1.1,0,2.1,0.9,2.1,2.1v31.1&#10;&#9;&#9;C156.9,311.7,156,312.6,154.8,312.6z M140.3,308.5h12.4v-27h-12.4V308.5z"/>
	<path class="st4_virtual-meeting-78" d="M143.8,275.8h7.4l0,0v5.9c0,0.8-0.7,1.5-1.5,1.5h-4.4c-0.8,0-1.5-0.7-1.5-1.5L143.8,275.8L143.8,275.8z"/>
	<path class="st1_virtual-meeting-78" d="M148,285.2h-1.1c-2.9,0-5.2-2.3-5.2-5.2v-4.3c0-1.1,0.9-2.1,2.1-2.1h7.4c1.1,0,2.1,0.9,2.1,2.1v4.2&#10;&#9;&#9;C153.2,282.9,150.9,285.2,148,285.2C148,285.2,148,285.2,148,285.2z M145.8,277.8v2.2c0,0.6,0.5,1.1,1.1,1.1h1.1&#10;&#9;&#9;c0.6,0,1.1-0.5,1.1-1.1v-2.2L145.8,277.8z"/>
	<path class="st3_virtual-meeting-78" d="M121.9,255.2c-3.4-1.3-3.2-3.9-3.8-7.3c-0.5-3.3-0.9-6.7-1-10.1c-0.1-3.8,0-7.8,1.5-11.3&#10;&#9;&#9;c1.9-4.6,5.6-7.5,10.5-7.1c-0.1-6.7,3.9-13.1,11.1-13.4c11.5-0.6,18.1,11.7,24.5,10.8s8.1-3.8,8.1-3.8c2.2,4.2,1.7,9.3-1.4,13&#10;&#9;&#9;c0,0,5.1-1.5,5.7,5.2s-3.4,24.6-3.4,24.6l-4.6-0.8c-1.9-0.3-4.3,0.1-6.3,0.2l-14.3,0.4C141.4,255.9,129.7,258.2,121.9,255.2z"/>
	<path class="st1_virtual-meeting-78" d="M132.3,258.8c-3.8,0.1-7.5-0.4-11.1-1.6l0,0c-4.1-1.6-4.5-4.8-4.9-7.6c0-0.4-0.1-0.9-0.2-1.3&#10;&#9;&#9;c-0.5-3.4-0.9-6.9-1-10.3c-0.1-3.8,0-8.1,1.6-12.2c2-4.9,5.8-8,10.4-8.4c0.6-6.7,5-13,12.9-13.4c7.2-0.4,12.5,3.7,16.8,6.9&#10;&#9;&#9;c2.9,2.2,5.5,4.2,7.5,3.9c5.2-0.7,6.7-2.8,6.7-2.8c0.7-1,2-1.2,2.9-0.5c0.2,0.2,0.4,0.4,0.6,0.6c2,3.8,2.2,8.4,0.4,12.3&#10;&#9;&#9;c0.4,0.2,0.8,0.3,1.1,0.6c1.8,1.2,2.8,3.3,3.1,6.2c0.6,7-3.3,24.5-3.5,25.3c-0.2,1.1-1.3,1.8-2.4,1.6l-4.6-0.8&#10;&#9;&#9;c-1.2-0.1-2.5-0.1-3.7,0.1c-0.7,0.1-1.5,0.1-2.1,0.2l-14.3,0.4c-1.8,0.1-3.8,0.2-6,0.4C139.4,258.5,135.8,258.8,132.3,258.8z&#10;&#9;&#9; M122.7,253.3c5.4,2,13.2,1.3,19.6,0.8c2.3-0.2,4.4-0.4,6.3-0.4l14.3-0.4c0.6,0,1.2-0.1,1.9-0.1c1.6-0.2,3.2-0.2,4.8,0l0,0l2.6,0.4&#10;&#9;&#9;c1-4.7,3.4-17,3-22c-0.1-1.1-0.4-2.6-1.3-3.2c-0.5-0.3-1.1-0.4-1.7-0.3c-1.1,0.3-2.2-0.3-2.6-1.4c-0.2-0.6,0-1.3,0.4-1.8&#10;&#9;&#9;c1.9-2.3,2.7-5.3,2.1-8.2c-2.1,1.2-4.5,2-6.9,2.3c-3.7,0.5-7-2-10.5-4.7c-4-3-8.5-6.4-14.1-6.1c-6.1,0.3-9.2,5.9-9.1,11.3&#10;&#9;&#9;c0,0.6-0.2,1.1-0.6,1.6c-0.4,0.4-1,0.6-1.6,0.6c-5.1-0.4-7.4,3.5-8.4,5.8c-1.3,3.3-1.4,7.2-1.3,10.5c0.1,3.3,0.4,6.6,0.9,9.8&#10;&#9;&#9;c0.1,0.5,0.1,1,0.2,1.4C120.8,251.9,121,252.7,122.7,253.3L122.7,253.3z"/>
	<ellipse class="st4_virtual-meeting-78" cx="126.3" cy="256.5" rx="7.2" ry="6.2"/>
	<path class="st1_virtual-meeting-78" d="M126.3,264.8c-5.1,0-9.3-3.7-9.3-8.3s4.2-8.3,9.3-8.3s9.2,3.7,9.2,8.3S131.4,264.8,126.3,264.8z M126.3,252.4&#10;&#9;&#9;c-2.8,0-5.1,1.9-5.1,4.1c0,2.3,2.3,4.1,5.1,4.1c2.8,0,5.1-1.9,5.1-4.1S129.2,252.4,126.3,252.4z"/>
	<ellipse class="st4_virtual-meeting-78" cx="168.2" cy="256.5" rx="7.2" ry="6.2"/>
	<path class="st1_virtual-meeting-78" d="M168.2,264.8c-5.1,0-9.2-3.7-9.2-8.3s4.1-8.3,9.2-8.3s9.3,3.7,9.3,8.3S173.4,264.8,168.2,264.8z M168.2,252.4&#10;&#9;&#9;c-2.8,0-5.1,1.9-5.1,4.1c0,2.3,2.3,4.1,5.1,4.1s5.1-1.9,5.1-4.1S171.1,252.4,168.2,252.4z"/>
	<path class="st4_virtual-meeting-78" d="M147.5,276.7L147.5,276.7c-12,0-21.7-9.7-21.7-21.7v-15.8c1.3,2.1,5.5,1.3,11.6-9.3c23.1,11.7,31.7,5,31.7,5&#10;&#9;&#9;v20.1C169.2,267,159.5,276.7,147.5,276.7z"/>
	<path class="st1_virtual-meeting-78" d="M147.5,278.8c-13.1,0-23.7-10.6-23.7-23.7v-15.7c0-1.1,0.9-2.1,2.1-2.1c0.7,0,1.4,0.4,1.8,1&#10;&#9;&#9;c0-0.1,2.8-0.2,8.1-9.3c0.6-0.9,1.7-1.3,2.7-0.8c21.3,10.8,29.5,5.2,29.6,5.2c0.9-0.7,2.2-0.5,2.9,0.4c0.3,0.4,0.4,0.8,0.4,1.2&#10;&#9;&#9;v20.1C171.2,268.2,160.6,278.8,147.5,278.8z M127.9,242.3v12.8c0.2,10.8,9.2,19.4,20.1,19.2c10.5-0.2,18.9-8.7,19.2-19.2v-16.9&#10;&#9;&#9;c-4.4,1.3-13.6,1.9-28.9-5.4C134.4,238.8,131,242,127.9,242.3L127.9,242.3z"/>
	<path class="st1_virtual-meeting-78" d="M149.2,256.5c-0.7,0-1.5-0.1-2.2-0.2c-1.1-0.3-1.8-1.4-1.5-2.5c0.2-1,1.2-1.7,2.3-1.6c0.2,0,0.6,0.1,1,0.1&#10;&#9;&#9;c-0.3-0.9-0.8-1.9-1.2-2.7c-0.5-1-0.1-2.3,0.9-2.8s2.3-0.1,2.8,0.9c2.7,5.1,2,6.6,1.7,7.2c-0.3,0.7-0.9,1.2-1.7,1.4&#10;&#9;&#9;C150.6,256.4,149.9,256.5,149.2,256.5z M149,253.6L149,253.6z"/>
	<path class="st1_virtual-meeting-78" d="M141.5,263.4H154c0,0-1.2,8.2-7,7.9C140.5,270.8,141.5,263.4,141.5,263.4z"/>
	<path class="st1_virtual-meeting-78" d="M126.3,312.6c-1.1,0-2.1-0.9-2.1-2.1V290c-0.1-1.1,0.8-2.1,1.9-2.2c1.1-0.1,2.1,0.8,2.2,1.9c0,0.1,0,0.2,0,0.3&#10;&#9;&#9;v20.6C128.4,311.7,127.5,312.6,126.3,312.6z"/>
	<path class="st1_virtual-meeting-78" d="M166.9,312.6c-1.1,0-2.1-0.9-2.1-2.1V290c-0.1-1.1,0.8-2.1,1.9-2.2c1.1-0.1,2.1,0.8,2.2,1.9c0,0.1,0,0.2,0,0.3&#10;&#9;&#9;v20.6C168.9,311.7,168,312.6,166.9,312.6z"/>
</g>
<g id="screen-4_virtual-meeting-78">
	<path class="st6_virtual-meeting-78" d="M354.5,293.8h-79.9c-1.1,0-2.1-0.9-2.1-2.1v-70.3c0-1.1,0.9-2.1,2.1-2.1h79.9c1.1,0,2.1,0.9,2.1,2.1v70.3&#10;&#9;&#9;C356.6,292.8,355.7,293.8,354.5,293.8z M276.6,289.6h75.8v-66.2h-75.8L276.6,289.6z"/>
	<path class="st6_virtual-meeting-78" d="M425.6,226.4h-47.1c-1.1,0-2.1-0.9-2.1-2.1c0-1.1,0.9-2.1,2.1-2.1c0,0,0,0,0,0h47.1c1.1,0,2.1,0.9,2.1,2.1&#10;&#9;&#9;C427.7,225.4,426.8,226.4,425.6,226.4C425.7,226.4,425.7,226.4,425.6,226.4z"/>
	<path class="st6_virtual-meeting-78" d="M425.6,245.7h-47.1c-1.1,0.1-2.1-0.8-2.2-1.9c-0.1-1.1,0.8-2.1,1.9-2.2c0.1,0,0.2,0,0.3,0h47.1&#10;&#9;&#9;c1.1-0.1,2.1,0.8,2.2,1.9c0.1,1.1-0.8,2.1-1.9,2.2C425.8,245.7,425.7,245.7,425.6,245.7z"/>
	<path class="st6_virtual-meeting-78" d="M425.6,265.1h-47.1c-1.1,0.1-2.1-0.8-2.2-1.9c-0.1-1.1,0.8-2.1,1.9-2.2c0.1,0,0.2,0,0.3,0h47.1&#10;&#9;&#9;c1.1-0.1,2.1,0.8,2.2,1.9c0.1,1.1-0.8,2.1-1.9,2.2C425.8,265.1,425.7,265.1,425.6,265.1z"/>
	<path class="st6_virtual-meeting-78" d="M405.9,284.5h-27.3c-1.1,0.1-2.1-0.8-2.2-1.9c-0.1-1.1,0.8-2.1,1.9-2.2c0.1,0,0.2,0,0.3,0h27.3&#10;&#9;&#9;c1.1,0.1,2,1.1,1.9,2.2C407.7,283.6,406.9,284.4,405.9,284.5z"/>
</g>
<g id="screen-2_virtual-meeting-78">
	<path class="st6_virtual-meeting-78" d="M307.2,188.6h-25.2c-1.1-0.1-2-1.1-1.9-2.2c0.1-1,0.9-1.8,1.9-1.9h25.2c1.1-0.1,2.1,0.8,2.2,1.9&#10;&#9;&#9;c0.1,1.1-0.8,2.1-1.9,2.2C307.4,188.6,307.3,188.6,307.2,188.6z"/>
	<path class="st8_virtual-meeting-78" d="M381.1,200.4v-24.8c0-11-9-20-20-20H342c-11,0-20,9-20,20v24.8H381.1z"/>
	<path class="st1_virtual-meeting-78" d="M381.1,202.5H322c-1.1,0-2.1-0.9-2.1-2.1v-24.8c0-12.2,9.9-22.1,22.1-22.1h19.1c12.2,0,22.1,9.9,22.1,22.1&#10;&#9;&#9;v24.8C383.2,201.6,382.3,202.5,381.1,202.5z M324.1,198.4h55v-22.7c0-9.9-8-17.9-17.9-17.9H342c-9.9,0-17.9,8-17.9,17.9V198.4z"/>
	<path class="st3_virtual-meeting-78" d="M350,74.2c1.2-0.2,2.5-0.3,3.7-0.3c5.8,0,11.7-0.2,17,2.4c10.9,5.4,17.8,16.4,17.8,28.6v23.7H318&#10;&#9;&#9;c-0.4-1.4,0.2-3,0.3-4.4c0-1.5-0.3-3.1-0.7-4.6c-0.8-3.9-1.3-7.8-1.4-11.7c0-6.2,1.3-12.3,3.8-18c1.4-3.4,3.1-7,6.1-9.1&#10;&#9;&#9;s7.8-2.2,10,0.8C339.8,77.6,344.7,75,350,74.2z"/>
	<path class="st1_virtual-meeting-78" d="M388.5,130.6h-67.5c-3.8,0-5,0-5.1-1.8c-0.2-1.2-0.2-2.4,0.1-3.6c0.1-0.4,0.1-0.8,0.2-1.2c0-1-0.1-2-0.4-3&#10;&#9;&#9;c-0.1-0.3-0.1-0.7-0.2-1c-0.9-4-1.3-8-1.4-12.1c0-6.5,1.3-13,3.9-18.9c1.5-3.6,3.3-7.5,6.8-10c3.2-2.3,8-2.7,11.2-0.4&#10;&#9;&#9;c3.8-3.4,8.5-5.7,13.6-6.4l0,0c1.3-0.2,2.7-0.3,4.1-0.3h1c5.6,0,11.4,0,16.8,2.6c11.6,5.7,19,17.5,19,30.4v23.7&#10;&#9;&#9;C390.6,129.7,389.7,130.6,388.5,130.6z M320.1,126.5h66.4v-21.6c0-11.4-6.5-21.7-16.7-26.7c-4.5-2.2-9.6-2.2-15-2.2h-1.1&#10;&#9;&#9;c-1.1,0-2.3,0.1-3.4,0.3l0,0c-4.9,0.7-9.3,3.1-12.7,6.7c-0.4,0.4-1,0.7-1.6,0.7c-0.6,0-1.2-0.4-1.5-0.9c-1.4-2-5-1.8-7.1-0.3&#10;&#9;&#9;c-2.6,1.8-4.1,5.1-5.4,8.2c-2.4,5.4-3.6,11.3-3.6,17.2c0.1,3.8,0.5,7.6,1.3,11.4l0.2,1c0.4,1.3,0.5,2.7,0.5,4.1&#10;&#9;&#9;c0,0.6-0.1,1.2-0.2,1.8C320.1,126.2,320.1,126.3,320.1,126.5L320.1,126.5z"/>
	<path class="st4_virtual-meeting-78" d="M347.7,151.9h10.1l0,0v8c0,1.1-0.9,2.1-2.1,2.1l0,0h-5.9c-1.1,0-2.1-0.9-2.1-2.1v0L347.7,151.9L347.7,151.9z"/>
	<path class="st1_virtual-meeting-78" d="M353.5,164H352c-3.5,0-6.3-2.8-6.3-6.3v-5.8c0-1.1,0.9-2.1,2.1-2.1h10.1c1.1,0,2.1,0.9,2.1,2.1v5.8&#10;&#9;&#9;C359.9,161.2,357,164,353.5,164z M349.8,153.9v3.7c0,1.2,1,2.2,2.2,2.2h1.5c1.2,0,2.2-1,2.2-2.2v-3.7H349.8z"/>
	<ellipse class="st4_virtual-meeting-78" cx="324" cy="125.7" rx="9.8" ry="8.4"/>
	<path class="st1_virtual-meeting-78" d="M324,136.2c-6.5,0-11.8-4.7-11.8-10.5s5.3-10.5,11.8-10.5s11.8,4.7,11.8,10.5S330.5,136.2,324,136.2z&#10;&#9;&#9; M324,119.4c-4.2,0-7.7,2.8-7.7,6.4c0,3.5,3.5,6.4,7.7,6.4s7.7-2.9,7.7-6.4S328.3,119.4,324,119.4z"/>
	<ellipse class="st4_virtual-meeting-78" cx="381" cy="125.7" rx="9.8" ry="8.4"/>
	<path class="st1_virtual-meeting-78" d="M381,136.2c-6.5,0-11.8-4.7-11.8-10.5s5.3-10.5,11.8-10.5s11.8,4.7,11.8,10.5S387.5,136.2,381,136.2z&#10;&#9;&#9; M381,119.4c-4.2,0-7.7,2.8-7.7,6.4c0,3.5,3.5,6.4,7.7,6.4s7.7-2.9,7.7-6.4S385.2,119.4,381,119.4z"/>
	<path class="st4_virtual-meeting-78" d="M352.8,153.2L352.8,153.2c-16.3,0-29.5-13.2-29.5-29.5c0,0,0,0,0,0v-15.9c0,0,7.4-4.2,9.6-10.9&#10;&#9;&#9;c0,0,11.3,12.9,22.2,12c9.1-0.8,18.1-2,27.1-3.8v18.5C382.3,140,369.1,153.2,352.8,153.2C352.8,153.2,352.8,153.2,352.8,153.2z"/>
	<path class="st1_virtual-meeting-78" d="M352.8,155.2c-17.4,0-31.5-14.1-31.5-31.5v-15.9c0-0.7,0.4-1.4,1-1.8c0.1,0,6.8-4,8.7-9.8&#10;&#9;&#9;c0.4-1.1,1.5-1.7,2.6-1.3c0.3,0.1,0.6,0.3,0.9,0.6c0.1,0.1,10.8,12.1,20.5,11.3c9-0.8,18-2,26.8-3.7c1.1-0.2,2.2,0.5,2.4,1.6&#10;&#9;&#9;c0,0.1,0,0.3,0,0.4v18.5C384.3,141.1,370.2,155.2,352.8,155.2z M325.4,109v14.7c0,15.1,12.3,27.4,27.4,27.4s27.4-12.3,27.4-27.4&#10;&#9;&#9;v-16c-4.5,0.8-14.4,2.5-24.9,3.3c-9,0.7-17.8-6.6-21.8-10.5C331.5,104,328.7,106.8,325.4,109z"/>
	<path class="st1_virtual-meeting-78" d="M352.6,130.6c-1,0-1.9-0.1-2.9-0.2c-1.1-0.2-1.9-1.3-1.7-2.4c0.2-1.1,1.3-1.9,2.4-1.7c0.8,0.1,1.6,0.2,2.5,0.2&#10;&#9;&#9;c-0.5-1.7-1.2-3.3-2-4.8c-0.5-1-0.1-2.3,0.9-2.8s2.3-0.1,2.8,0.9c2.3,4.4,3.1,7.4,2.3,9.1c-0.3,0.8-1,1.3-1.8,1.5&#10;&#9;&#9;C354.3,130.6,353.5,130.7,352.6,130.6z"/>
	<ellipse class="st1_virtual-meeting-78" cx="352.8" cy="139.1" rx="4.2" ry="3.9"/>
	<path class="st1_virtual-meeting-78" d="M334.9,201.8c-1.1,0-2.1-0.9-2.1-2.1v0v-22.4c0.1-1.1,1.1-2,2.2-1.9c1,0.1,1.8,0.9,1.9,1.9v22.4&#10;&#9;&#9;C336.9,200.9,336,201.8,334.9,201.8z"/>
	<path class="st1_virtual-meeting-78" d="M368.2,201.8c-1.1,0-2.1-0.9-2.1-2.1v-22.4c0.1-1.1,1.1-2,2.2-1.9c1,0.1,1.8,0.9,1.9,1.9v22.4&#10;&#9;&#9;C370.3,200.9,369.4,201.8,368.2,201.8z"/>
	<path class="st1_virtual-meeting-78" d="M352,202.6c-1.1,0-2.1-0.9-2.1-2.1v-38.6c0-1.1,0.9-2.1,2.1-2.1c1.1,0,2.1,0.9,2.1,2.1c0,0,0,0,0,0v38.6&#10;&#9;&#9;C354.1,201.7,353.1,202.6,352,202.6z"/>
</g>
</svg>